/* XPM */
static char *result[] = {
/* columns rows colors chars-per-pixel */
"64 64 52 1 ",
"  c #000100",
". c #050C03",
"X c #071005",
"o c #091306",
"O c #0B1807",
"+ c #0D1C09",
"@ c #0F200A",
"# c #11240B",
"$ c #142B0D",
"% c #17310F",
"& c #18330F",
"* c #193510",
"= c #1C3B12",
"- c #1F4114",
"; c #214515",
": c #234A17",
"> c #254E18",
", c #275219",
"< c #29551A",
"1 c #2B5B1C",
"2 c #2F621E",
"3 c #30641F",
"4 c #306520",
"5 c #346B22",
"6 c #377224",
"7 c #3B7A27",
"8 c #3D7E28",
"9 c #3F8229",
"0 c #40852B",
"q c #448C2D",
"w c #47912F",
"e c #479130",
"r c #489530",
"t c #4C9D33",
"y c #4FA134",
"u c #51A536",
"i c #53AA37",
"p c #55AC39",
"a c #57B13B",
"s c #5AB53D",
"d c #5CBA3F",
"f c #5FBE40",
"g c #62C343",
"h c #66CA46",
"j c #68CD47",
"k c #69CE48",
"l c #6DD54B",
"z c #6FD84D",
"x c #71DB4E",
"c c #73DF50",
"v c #77E453",
"b c #78E553",
/* pixels */
"                                                                ",
"                                                                ",
"                                                                ",
"  oO#ooX.+ oo+.#Oo#O.  oO#Xo.X@ ooO.#oo@O.  O++Xo.oo o+oo#.++o  ",
"  *-====#=.;>;.$=-==@  ===*-:<65983======o .;====&*$+,,#o*=-*=. ",
"  #==*====X=-*.o+$==@  $==20usggggdiw4===O .%=*====#O--@ ++*==. ",
"    .. ..    .    ..    .1ugzvvvvvvxls9$.    ..  ...  ..    .   ",
"         .     .       .1pzvvxlzcvvvvxhq#                . .    ",
"  $*=%$$+=.$==o**$=*O  1axbxfiutahxvvvvhqO .=**%$#$$.=-#+=$=*%  ",
"  &-==-;%=.:<=.+$===# +tlbza9,;$5tfvbvvvf< .;=*-===#@1,@ $*=*=. ",
"  .o#+O@#+.o++  ..##. 4hvvd1+#O.o#8hvvvbct+ .#@O@@#o.O+o ..O#+  ",
"                     +yxbzq.      +txvvvvg1                     ",
"  oo+oo..+..o+.+OX+O.;gvbl5o..O .o+<gvvvvxqoOO+Xo.oo oOoX@.OOo  ",
"  *==*==#=.;>-.$*-==+4lbbzq-=#=X:>*#uvvvvvp*;=*==$*$+,,#o*=-*=  ",
"  #====-==o=;*.o+$==#0xvvci>==%o--%.0xvvvvg:%***===#+;;+ +@*==. ",
"    ..  ..   .    ...ecvvvg< ..  .. 5lbvvvj< ......   ..   ..   ",
"               .    Xrcvbbz9.     . 1jbvvbl4             .  .   ",
"  $*=$$$O=X$*=X*$$=&@qxvvvvi*+*.%*%X6jbvvbl6***$$+$$o*=#+=#&%$  ",
"  *;*=-;%=.:<=.@&==-$7xbbvvf3**o<<* 4jbvvbl5:=*;-==$@1,#.$*-*-. ",
"  .O$#+###.++# ..X##.<hbvvvf:#+.O+@ 1jbvvbj1X##+###o.+@o ..O$#  ",
"                     #pxbbvu+       4lbvvvg=                    ",
"  .oo....o ..O Oo.oo. 4fxxg8..O .Xo.9xbvvva$.oo....o .o..O.oo.  ",
"  %=====#-.->;.*====@ o0aaw<&$=.::=+uxvvbcrO;==**%*$O,>$o==-*=  ",
"  $=====*=o=;= +#$==#  *14;===%o;;$*svbvbk4X*======#+:;@ +#*==. ",
"   .......   .    ..     ...... ...1jbvvvs*  ......    .   ...  ",
"                                  oqxvvblq.                     ",
"  O#$++oX$.o@$.$#o$#.  +#$OOoo$ o+<svvbvd;  ###OOo++.@#+o%o##+  ",
"  ===*--#-.:,; $*;==# .====-=$=X<>qjvvvlr@ o:**-=*=$@<,#o%=;*=. ",
"  +$=&&=**.$*% oo@=*+  #$=&**&$o%:ucvvca1o  $*&%***+O=*+ oo$**  ",
"                                 :fvvvh5.                       ",
"  .XO.. .o ..o.oX.o.   ooo....o .0zvbzt*X   .oX.. o. .o.XO..X.  ",
"  &====&@-X=:;.*====+  ===*=&#=.<pvvcs6*=o .-====$*%o>>$o==-*=. ",
"  $====-*=.=:= O#%==#  *====-**o7hvvj7*==O .==*====#+>:+ @$===. ",
"   .oo..oo ..o    oX    .oX..o..qxbxy#.oX    oo.o.o. ...   ...  ",
"                               $avvf<                           ",
"  #$*###o*.+$*.%$#%%o  $%*#$+O%<hble;##%$. .$%$##O##.$*#+=+$$$  ",
"  *-==;;$;.><-.#*;==#  =====-%=0zvf;#=-*-O o;=*-===$+1,#.$=-*-. ",
"  o#$###$#.+#$ ..o$$o  O#$#$$$=tcl8..XO$$.  O$$#$$$Oo#$o X.@$#  ",
"                              $scf-                             ",
"  . ..   .   . . ..     .. .  ;gct@ . ..     ..    .  . .. ..   ",
"  $==%&$@=X&=-o*=*==O  *==%*$@7jzr=X=**=*o .==*%&#$$o-;$O=%=*&  ",
"  &-==-;*=X:,= O$*==#  ====--*0lj8* @$===+ .-=*-=-=#+<>+ #%-*-. ",
"   o+OOO+O ooO . .@+.  .o+OOO#9zg,o . .@+   .++o+++o.o+. . o@o  ",
"                              0xf*                              ",
"  @$*@@+O*.+$%.&##&$X  #$*##OOrcf;$.*##%$. .$$$##o##.$%#O*+$$#  ",
"  ====--$=.:,-.#*-==#  -=*==-*thp1*.$*=*-O .:**-==*$@<,#.%=-*-. ",
"  o$%$$$$$.#$$ .oo&$o  O$%$$%%<61%# .X+*$. .+$$$$$$Oo$%o o.#%$  ",
"                                                                ",
"  .Xo... o ..o.o..oX.  Xoo....O#+oX.O..OX   .oo....X .o..o..XX  ",
"  *====*#;o=:;.&====+  ===*=*;rut0;.*==*=O .-=**=$*$o>>$o===*=  ",
"  $====-==.=:=.o$%==#  &====1yhcxg8.+#%=-O .=====-=##>:# #$===. ",
"   ....... ...    X.    ...o7jvvvcs= ....    .......  .    .X.  ",
"                           Oucbvvbl5.                           ",
"  .oO....O ..o Oo.oo.  XoO.*svvvvvcq#..Oo   ooo.. Xo .oo.O.ooX  ",
"  &====*@-.=:;.*====+  -==*1fvvvvvxr-*===O .;**==$*$+>:#o=*-*=  ",
"  $====-==.-:= O#$==#  &===<pvvbvbx8+#*==O .=====-=#+::# +#===. ",
"   ....... ...    oX    ...Oqzbvvvg<   o.    .....o. ..    .X.  ",
"                            ;sxvvlr+                            ",
"  #$=$#@O*.#%*.*$#*%o  $%*###5afdy<X=#$*$. .&%%##+##X$*#+=@%$$  ",
"  =-*=--%=.><=.#%-==#  -===;-*2272*.#==*;O .:=*;==*$#1<#.$=-*-. ",
"  o@$$#$$#.+## ..o$$o  o#$$#$$@.@## ..+$$.  o$$#$$$O.#$o ..#$#  ",
"                                                                ",
"                                                                ",
"                                                                "
};
