/* XPM */
static char *result[] = {
/* columns rows colors chars-per-pixel */
"64 64 56 1 ",
"  c #010100",
". c #050B03",
"X c #061204",
"o c #091406",
"O c #0B1A06",
"+ c #0D1C08",
"@ c #0D2107",
"# c #0E2209",
"$ c #11250B",
"% c #142C0D",
"& c #16320E",
"* c #18340F",
"= c #19380F",
"- c #193510",
"; c #1C3B12",
": c #1E4213",
"> c #204514",
", c #234B16",
"< c #254E18",
"1 c #255017",
"2 c #265318",
"3 c #28561A",
"4 c #2A5B1B",
"5 c #2E621D",
"6 c #30661F",
"7 c #31681F",
"8 c #336B21",
"9 c #367323",
"0 c #387725",
"q c #3B7B26",
"w c #3D7F28",
"e c #3E8228",
"r c #438B2C",
"t c #46932E",
"y c #48962F",
"u c #499730",
"i c #4B9C32",
"p c #4FA234",
"a c #50A435",
"s c #52A937",
"d c #55AD39",
"f c #57B13A",
"g c #59B43C",
"h c #5CBA3E",
"j c #5FBE40",
"k c #60BF41",
"l c #62C443",
"z c #66CA46",
"x c #68CD47",
"c c #69CE48",
"v c #6DD44B",
"b c #6FD84D",
"n c #71DB4E",
"m c #73DE50",
"M c #77E453",
"N c #78E553",
/* pixels */
"                       . .XXO@@@@@@OXX..                        ",
"                       .XXOO@#@%%%%@@@XX..                      ",
"                      ..XX@%===:====&%@OX..                     ",
"  oO$oo..+ oo+.#+.$OX.X%=::>:,2215312:=:&O.X+#+Xo.oo.o+oX$.++o  ",
"  -:;;:;$>.><>.%;;;:#X@245579eetyye998854%XO,;=:;--$#2<$o-;:-;. ",
"  $;;--;-;.;>-.o+%;:&X@,55eysfjllljfpe955=OO;;;=;;;#+>:# ++-;;. ",
"    .. ...   .    XXX@&=,ealbmMMMMMmxgu82=#O.X.  ...  ..    .   ",
"               .. .XO%=1efvMMnbbmMNMNmlp8:&@O..          . .    ",
"  %-;&%%+;.%;:.-*&::*&:efnNnjfspfzmMMMMzp5:=:::%&$%%o;;$+;%---  ",
"  &:;;::&;.<2;.+&::,::5abNnhieeeyalmMMMMje,:4:::;;;$$4<$.$-;-;. ",
"  .+$++$$+.o++ ..X&:::ezMMhee8758eizMMMMbs5:&=%@+$$o.o+o . +$+  ",
"                 .X@=5fmMbpe741135esnMMMMze,&OX.                ",
"  oo+oo..+ .o+.+OO&=,elMMvie751:159ylMMMMbp5:=%Xo.oo o+o.$.O+o  ",
"  -:;-;;$>.><>.%:::54evMNbse055:80eefmMMMMf971::;&-%+2<$o-;:-;  ",
"  $-;;;:;;o;>-.o#=,37inMMMfe951=5789abMMMMle51::;;;$+,>$.+$-;;. ",
"   ...  ..   .  .O@:3pnMMNxe5:&@@=18ivMMMMxe,=@O...         .   ",
"    .        . ...+-3amNMNnp4:%@@&:6exNMMNbe1=@.         .  .   ",
"  $-;%%$+;.%--.;--<24pmNMMmf7>1@:256pxNNMNvy72:=-+%%o-;%+;$-&%  ",
"  -:-;>>&;.<3;.+&>,45tvNMMMje3,@5565yxNMMNxy93:1::;$$4<$.%-;-;. ",
"  .+$$+$$$.++$ ..+->,wzNMMMl81=@&:38exNMMNxe4:=#$$$o.+$o ..+$$  ",
"                 .X@-5fMMMmf1%@OO@:5ycNMMMle:&OX                ",
"  ..+....o ..o.oOX$&*:ehnnze>%%@@:28pbMNMMg8:=$Xo..o .o..+.o+o  ",
"  -;;-;-$:.:<>.-;::1;=2yffu93:,@5699dmMNMma762:;---%+<<%o;;:-;. ",
"  %;;;;>;-o;,-.o#&::=$=59e753,:%258ejMMMNve341::;;;$+,>$.+$--;. ",
"   ....... ...    oOOO$&===&##@@&:5exNNNmh0:=#O..... ...   ...  ",
"                   .XX@@@#@OOXX@&>7pnNNNvp5=%X.                 ",
"  ++%++o.$ O+%.%#O%$O.X&=:%%##=%>5ehMMMMhe1===%O+.++.+$+o&o$$+  ",
"  ->;-:;%>.,2:.%-:;:#..,:::::=:&8eixMMMvp7:=3:=:;--%+42$.-;>-;. ",
"  +&-----&.&-&..o#;-+ .$==*;;::=5efnMMnge4=$&;----;+o-;+ oo%-&. ",
"                         .. .X$=,elMMMzy4:%O..              .   ",
"  ..o....o ..o o..oo   .Xo.XX@=:4ivMMbse2=#oOoo....o .o..+.oo.  ",
"  -;;;;-$:.:,>.-;;;;#  ;;:=;;=4:efMMmje75-OO,;---%-&o<<%o;-:--. ",
"  %;;-;>--.:<- +$&;;$  -;;=:1:32exMMxy074&.X;;;;;>;#+<<+.+%-;;. ",
"   .oo..oo ..o    Xo    .XXO@=:3pnMnd91:&O...X..o... ...   .o.  ",
"                           XO%:6gmMje4:&OX.                     ",
"  $%-%$$+-.+%-.&%$-%o  %&-$&=:5exMvpe41>;O .%&%$$+$$.%-$+-+%%%  ",
"  -:-;>:%:.<3>.$-;;;$  :;;:<327uvMg0544>,+ o,;->:;;$$42$.%;:->. ",
"  .$%%$%%$.+$$ ..+%%o  o$%%*:27dnvi5,:&:%o  +%$$$$%o.$$o o.$%$  ",
"                          .X$=5hMj01:%OX                        ",
"   ...   .   .... ..    ..X@%=9lns5:=#XX.    .. . ..  .. . . .  ",
"  %;;--%+:.&;:.---;-+  -;:;:,1rxbs9>4::;=X .;--%-$-%o::%+;%;--. ",
"  -;;;;>-;.<<; +%-;;$  ;;;:<44yvxe5=;;;;:O .>;->;:-$$3<$.$&;;;. ",
"   o++++++..o+ ...++.  .O#@&=1ybl9:=#OX#+   .+++o++o o+.  .o+o  ",
"                          XO%=ybj5=%@X                          ",
"  +%&$$+o-.+$-.-$#-%X  $%=&;:1pbh91=>&%&%. .%%%+$o$%.%&++-+%%$  ",
"  ->-;>:%:.<3;.$->-;$  >;::244plf03&:::=;+ .<--::-;$+42$.&;:-:. ",
"  o$-%%%%%.$%% .o+&%o  +%=::14qre51%@@@*%. .+%&%%&%+o%%+ o.$%%. ",
"                         XX$=:142,:&@X.                         ",
"  ..o....o ..o.o..+..  .+#$*:479852:=#XO..  .oo..... .o..o oo.  ",
"  -;;-;-+:o;,:.-;;-;#  ;:>,35qpdsu9:2,:;:o .>;--;%--o<<%o;;:-;. ",
"  %;;;;;;;o;,;.o$&;;+  -:,25qsxbvky2::;::+ .-;-:;:;$$<>$ $$;;;. ",
"   .o..... ...   ....  .O$*1txMNNmh8=$OO.   .......   ..   .o.  ",
"                        .O&2smMMMNve;$O.                        ",
"  .o+....+ ..+.+o.+..  O@&=5hMMMMMmp2&@#o.  .+o....o .oo.+.oo.  ",
"  &;;-;-$;.:<:.--;;;O  ::,3qhMMMMMmp81<;;o .>--;;%-$+<<$o;-;--. ",
"  %;;;;>;;.:>; o$&;;$  -:149gMMMMMvt1::::+ .;;;;;::$$<>+ $$;;;. ",
"   .....o. ...    o..  .O#=,ivMMMMkq=#@Oo    .....o. ...   .o.  ",
"                        X@@=9hbMMxp2=@X.                        ",
"  $&;%$#o-.$&-.-%$;%o  %=::,4edjjaq>3:&=%. .--%$%+$$.%-$+;+-&%  ",
"  ->-;::-;o<3;.$-:;;$  >::,455eete5&:::=:+ .,-->;;-%+52$.%;:-;. ",
"  o+%%$%%$.+$$...o%%o  O%&&=:11>11:#@O@&%.  o%%$%%%o.$%o ..#%$. ",
"                         .XX@@%%%%#OX..                         ",
"                          .XXO@@@OXX..                          ",
"                           ..XXXXX...                           "
};
