/* XPM */
static char *_641231100229[] = {
/* columns rows colors chars-per-pixel */
"64 64 41 1 ",
"  c #53BF12",
". c #59BF14",
"X c #54C112",
"o c #5DC216",
"O c #60C417",
"+ c #64C519",
"@ c #69C71B",
"# c #6CC91C",
"$ c #70C91F",
"% c #74CB24",
"& c #78CE27",
"* c #7BCF29",
"= c #7ED02D",
"- c #80CF2F",
"; c #80D12F",
": c #85D332",
"> c #8AD437",
", c #8CD539",
"< c #92D73E",
"1 c #92D83E",
"2 c #94D741",
"3 c #96D944",
"4 c #98D947",
"5 c #9CDA4C",
"6 c #9FDB50",
"7 c #A3DB54",
"8 c #A5DC5A",
"9 c #A9DD5E",
"0 c #ACDE61",
"q c #AEE066",
"w c #B0E167",
"e c #B3E06B",
"r c #B6E172",
"t c #B9E277",
"y c #BDE27B",
"u c #C2E284",
"i c #C5E48A",
"p c #C8E58D",
"a c #CAE593",
"s c #CEE69A",
"d c None",
/* pixels */
"dddddddddddddddddddddddddd554322<,,>>>:=dddddddddddddddddddddddd",
"dddddddddddddddddddddd87755533222,,>-::====*dddddddddddddddddddd",
"ddddddddddddddddddd9987765544322<<,>>:===&&&&%%ddddddddddddddddd",
"dddddddddddddddddq09888775553322,,,,:>:===*%&%$$%ddddddddddddddd",
"dddddddddddddddeq0098897555442222,>>>::*==*&%%$$$##ddddddddddddd",
"ddddddddddddddeeqq09977777543322,,>>:::==**&&&$%$#@@#ddddddddddd",
"ddddddddddddtteeqqq98877575543222,>>>::==**&&%%$$#@@@@dddddddddd",
"dddddddddddttreeqq999787755542222,>>>::===*&&%%$$$#@+++ddddddddd",
"ddddddddddyytrrwqq09887775554221,>>>:::===*&&%%$$$#@@+++dddddddd",
"ddddddddduyytrrwwq0997787543422221dd>::==*&&&%%%$$#@+@oooddddddd",
"dddddddduuyttrrwqq999887755543dddddddddd=**&%%%%$##@@++oo+dddddd",
"dddddddiuyyttrrwqqq988855555dddddddddddddd*&%%%$$$$@@++oo.oddddd",
"dddddddiuyyytrrwqqq9987775ddddddddddddddddd=&%$%$$#@@++++.Xodddd",
"ddddddpiuyyttrrrqq9988776ddddddddddddddddddd&%$%$####+++oo..oddd",
"ddddddiuuyyytrrqeq0988777dddddddddddddddddddd&%$$$#@+++Oo+..Xddd",
"dddddiiuuyyytrrwqq098777ddddddddd1>>>ddddddddd%%$$#@@++++oooXXdd",
"dddddiiiuyyyrrrewq098778ddddddd22>>>::dddddddd%$$$#@#+++OOoXXXdd",
"dddddiiuuyyyyreew009877dddddddd2,>>>::;ddddddd%$$##@#+++OooXXXXd",
"dddddiiiuyyytreeww99977ddddddd212>>>:-;ddddddd%%$$##+++oOOooXXXd",
"dddddiiuuyyytrreww098797666544222,,>::;ddddddd%%$$#@##++OOoXoXXd",
"dddddiiiyyyyyreewq0988876555522<,,>>::;ddddddd%$$####o++ooooX  X",
"dddddiiiuuyytrrewq0998866652222<2>>>::dddddddd%%$$###@+@+oooo XX",
"dddddiiuyyyttreewq09987765545<<<2,>>>ddddddddd%#$##@+++oo+ooXX X",
"dddddiiiuyyyyreewq098777655552<<,dddddddddddd%%%$$#@@+@ooooXXX  ",
"dddddiiuuyyytreewq0988875555411<dddddddddddd&%%$####+++++ooooXXX",
"dddddiiiuyyyyrrewq999787755541<<ddddddddddd=%%%#%####++Oo+oooXXX",
"ddddpiiiuyytrreewqq998777653111ddddddddddd=&=%%%####++++@oooXXXX",
"ddddpiiiuyyyyreewq09887775544<<ddddddddd==&&%%%%%###+#++ooooXXXX",
"dddapiiuuyyytrrewq099887665411<ddddddd:==&=&&%%%%###@+++ooooXX X",
"dddapiiuuyyytrrqwq0997876654411ddddddd:===&&%%%%######++ooooXXXX",
"ddaapiiiuyyytrrewq9998876654411ddddddd:==&&&&%%#%###@o@o+oooX  d",
"ddaapiiuuyyytrrewq09888766551111,1>>>>====&&&&%&####@@+++oo.. Xd",
"dsaapiiuuyyytrrewq099777665454<11>>>:::=;**&&&$$####@+++OOOXXXXd",
"dsaapiiiuyyytrreww099797765442<11,>>::=:;**&%&&$%###@+++OOOXXXdd",
"saappiiuuyyttrrwwq09978766551121dddddd:=;**&&&%%$###@+OOOXOoXXdd",
"ssappiiiuyyytrreqq09977766544412dddddd:=;**&%%%#$####+@@OOXXXddd",
"dsaapiiuuyyytrrwwq99878766554212dddddd:=;**&&%&$$$##@+OOoooooddd",
"ddddpiiiuyyyttrqwq09988776554311dddddd:=;**&&&%%$$###+OOOo.Xdddd",
"dddddddiuyyttrrwww09978766453222dddddd:=***&%&%$$$##@@O+ooXodddd",
"dddddddiuyyytrrewq0097876652421111,,>::=;**&&%%$$$##@OO+O.oddddd",
"dddddddiuyyytrrewq099887755532221>,>>::===&&&&$%%%%@@+OO.Ooddddd",
"ddddddiiuyyytreewq098887765542221>,>:::===*&&$%$$@#@@++O.Odddddd",
"dddddddiyyyttrrwwq999887655543222,,>:>:;==*&&&&$$#@@@+OOOddddddd",
"dddddddiuyyytrrewq098777755543221,,>:::==**&&&#&$#@@@OOOdddddddd",
"dddddddiuyyttrreeq099887755553221>,>::;==**&&&&#$$@@++OOdddddddd",
"dddddddduyyytteeq0098877755533222,,>:>::==*&&&#%$$@@@++ddddddddd",
"dddddddduyyttreeqq0988776655333211>>:::==**&&&#%$$#@++dddddddddd",
"dddddddduyyytreeeq099887665543221>>>>::=;**&&%&#$$@@@ddddddddddd",
"dddddddduyyttrrqwq099787765532221,,>:::==**&&&%%$##@+ddddddddddd",
"dddddddduyyytrreqq098887665452221,,,>::===*&%&$$$##++ddddddddddd",
"dddddddduyyytrrqqq998787655543221,>>:::===*&%&$%$#@@++dddddddddd",
"dddddddduyytrreeqq998877665442421,,,:>:===*&&%%%$$@@+@dddddddddd",
"ddddddddduyytrreqq999788655422221,,>:>:;==*%&%%$$$@@+Odddddddddd",
"dddddddddddddddddddddddd665544221,,>:>;====&&%$%%#@@+O+ddddddddd",
"ddddddddddddddddddddddddd75442221,,>>::====%&%%$$##@++.ddddddddd",
"dddddddddddddddddddddddddd6542221,,>::;====%&%%%$#@@+.+Odddddddd",
"dddddddddddddddddddddddddd55422<1,>>>::;=**&&%$$$#@@+++ddddddddd",
"ddddddddddddddddddddddddddd533221,,>>;;;=***%%$%$$##dddddddddddd",
"ddddddddddddddddddddddddddd552221,,>:::;=**%%&%%dddddddddddddddd",
"ddddddddddddddddddddddddddd532221,,>>:;;****dddddddddddddddddddd",
"ddddddddddddddddddddddddddd542221,>>::;;;ddddddddddddddddddddddd",
"dddddddddddddddddddddddddddd422<<,,,>ddddddddddddddddddddddddddd",
"dddddddddddddddddddddddddddd42121,dddddddddddddddddddddddddddddd",
"dddddddddddddddddddddddddddd53dddddddddddddddddddddddddddddddddd"
};
