/* XPM */
static char *_641302691779[] = {
/* columns rows colors chars-per-pixel */
"64 64 83 1 ",
"  c #762B90",
". c #772B90",
"X c #782B90",
"o c #782C90",
"O c #792D91",
"+ c #7A2D91",
"@ c #7B2E91",
"# c #7C2E91",
"$ c #7C2F91",
"% c #7D2F92",
"& c #7E3092",
"* c #7F3092",
"= c #7F3192",
"- c #803293",
"; c #813293",
": c #813393",
"> c #823493",
", c #833493",
"< c #833494",
"1 c #843594",
"2 c #853694",
"3 c #863694",
"4 c #863795",
"5 c #873895",
"6 c #883895",
"7 c #893995",
"8 c #893A96",
"9 c #8A3A96",
"0 c #8B3A96",
"q c #8B3B96",
"w c #8C3B96",
"e c #8D3C97",
"r c #8D3D97",
"t c #8D3E97",
"y c #8E3E97",
"u c #8E3F98",
"i c #8E4098",
"p c #8F4299",
"a c #90449A",
"s c #91469A",
"d c #91469B",
"f c #91479B",
"g c #92489B",
"h c #92489C",
"j c #92499C",
"k c #934A9C",
"l c #934B9D",
"z c #944C9D",
"x c #944D9D",
"c c #944D9E",
"v c #954F9F",
"b c #9651A0",
"n c #9753A0",
"m c #9955A1",
"M c #9957A2",
"N c #9A59A3",
"B c #9B5BA4",
"V c #9C5BA4",
"C c #9C5EA5",
"Z c #9E60A7",
"A c #9F62A8",
"S c #A064A9",
"D c #A165AA",
"F c #A166AA",
"G c #A267AB",
"H c #A367AB",
"J c #A369AC",
"K c #A46AAC",
"L c #A56BAD",
"P c #A66DAE",
"I c #A66EAE",
"U c #A76FAF",
"Y c #A971B1",
"T c #A973B1",
"R c #AA73B1",
"E c #AA73B2",
"W c #AB75B3",
"Q c #AC77B4",
"! c #AD79B5",
"~ c #AE79B5",
"^ c #AF7BB6",
"/ c #B07DB7",
"( c None",
/* pixels */
"((((((((((((((((((((((((((ldppiuy9y99466((((((((((((((((((((((((",
"((((((((((((((((((((((bvvkdddpiuy99999665443((((((((((((((((((((",
"(((((((((((((((((((mmnbvlkldppiqww99996654354<<(((((((((((((((((",
"(((((((((((((((((BNNmnbvzkkddiiyeww95966553,,<<::(((((((((((((((",
"(((((((((((((((ZCCNmmnbvzkkpppiuwyq9994951541<1>::%(((((((((((((",
"((((((((((((((AZCNNmmnbvzklpkpiqwqq99593554,1<<=:::::(((((((((((",
"((((((((((((SSAZCCNmmnbvzlkkppiyy9q9963955551<<,:::%%%((((((((((",
"(((((((((((JSSAZCBNNmnbvzlkpppiiww99969355,11<<,::%:-%%(((((((((",
"((((((((((LSSSSSCVNNmbbvlklddiuyyww995564433<<<,:-::&&&$((((((((",
"(((((((((PLSSSSCCVNmmnbvzkldpiuyww((9994933,4<<,:-:#:&%$%(((((((",
"((((((((PLLLSSSCCVNNmnbvzkkpdi((((((((((5533<<<=:-::#&%#%#((((((",
"(((((((UPLKSSSSZCVNmmnbvzkll((((((((((((((33<<<,:-:#:&&$%++(((((",
"(((((((UULLLDSSZCVNNmnbvzz(((((((((((((((((4,<<,:--;%%%#++++((((",
"((((((YUPLDDDSSZCNNmmnbvz(((((((((((((((((((4<<,:-;;:&%#%++++(((",
"((((((YUPLLDSSZZCCNmmnbvv((((((((((((((((((((<<,::#;&&&$%++++(((",
"(((((YYUPLLDSSSZCBNNmnbv(((((((((w9w9(((((((((<,::#;&&%$%+++++((",
"(((((WYPPLLHHSZZCVNNmnvv(((((((yy99994((((((((,,::-;;#####+++o((",
"(((((YYYPLJHSSSCCVNmmnn((((((((ywyq9999(((((((,,::#;-#%###+++oX(",
"(((((WYPPLLHHSSSCVNNNbn(((((((iyww99954(((((((,,:::;#:&$##+++oX(",
"(((((YYYPLJHSSZCCVNmmbbvzzlpdiiyyw99999(((((((,,:::#:&%##+++o+.(",
"(((((WYPPLLHDSSZZNNmmnnvzkkldiiqwww9955(((((((,,:-:;#;%#+&+++oo.",
"(((((YYYPLJHDSZZCNNmmnvvzkkpdiiywww999((((((((,,:-#;;###++++oo..",
"(((((WYPPLJHDSZZCNNNNbnvzkldpiuyyw9w9(((((((((4,:;-;#;##&+++oo..",
"(((((YYYLLLHDSSZCCNNmbvvllldpduyw((((((((((((<:::--;;###&+++oo. ",
"(((((RYPPLKSDSSZCVNNmnvvzgggaiiy((((((((((((4::::::#&&&$+++++ooo",
"(((((RYYPPJJDSZZCVNNmnnvvghgaaiy(((((((((((44<4,::::&&%$+&+++o o",
"((((WRYYPLJJDSSZCVNmmnvvvgzaaii(((((((((((33:<<::::&&&%#++++oo  ",
"((((WYYPPLJJSSZZCNNNNbbvgzhdaai(((((((((44334:<::-:$:&&#&++++o  ",
"(((QWYYYPLJHHSZZCVNmmnnvvgdddai(((((((9464331,,::---:%%#%+++oooo",
"((/QQYYPPLLHHSSZCVNNmnvvvgzdaii(((((((6644331,,,:--;&&%#+++++o..",
"((/QWWYYPLJHSSSZCVNmmnvvxxgdaiy(((((((6664,411,::--#&&&$%++++o.(",
"((QWWYYPPLJJSSSCCVNNmnnvxgggaaiyyw999966646111,,:--;&&%$&+++o+.(",
"(~~QWRYPLLHHSSSZCBNNmnbvlllppiiywwy999445535,<<,=<====%%%++++o.(",
"(/~QWRYYPLLHDSZZCBNnmnbvzllldiiyuw995939553,<<<,<====O%O+%+++o((",
"//~QWRYPPLLHDSZZCCNNmnbvzkdpppiy((((((935<35<<<,=<====&&%+++++((",
"/~~QQRYYPLLHDSSZCNNNmnbvzklldpiy((((((395535<<<,<<====O+%+++o(((",
"(/~WWYYPPLLHSSSZCVNmmnbvzkkppiiu((((((94555>1<1>=<====&&+%+++(((",
"((((WWYYPLJHHSSCCVNNnnbvzlkklpii((((((6651>51<11<=====O&%+++((((",
"(((((((PPLJHSSSZCVNmNnbvzkkpppiy((((((6655511<<==<====&&%+++((((",
"(((((((YPLJHSSZZCVNNnnbzzkljpiiuyw99996685>11<1><=====&O#++(((((",
"(((((((PPLJHHSZZCVNNmnbvzkkjppiqwww9965653331<<1:::#&&&$##+(((((",
"((((((YYPLJJSSSZCVNmmbbvzkjpppiyu999966655331<<=::::&&%##+((((((",
"(((((((PPLJHSSSZCVNNmnbvzlzpjpiiyww99539543,1<<,:::&:%%%#(((((((",
"(((((((YPLJHHSSCCVNmmnbvzlllppiqww99969355351<<,:-:#:%%+((((((((",
"(((((((PPLLHSSSZCCNnmnbvzkkppiuyew9999395433,<<<:---:%%%((((((((",
"((((((((PLJHSSZZCBNNmnbvzkkpdiiueww99993545,<<<=:--;&&%(((((((((",
"((((((((PLLSSSZZCCNmmnbvzllpppiqeww955595433<<<,:--#&&((((((((((",
"((((((((PLLLHSSZCNNNmnbvzllldpuuew999994543,5,<,:--;:(((((((((((",
"((((((((PPLHSSSZCVNmmnbvzlkdppiuyqq9q666555>1<11:--;-(((((((((((",
"((((((((PPLSSSSZCVNmmnbvzlkddpiiyqq9966655551<1=:-;;-(((((((((((",
"((((((((PLKLSSSCCVNmmnbvzkkpppuy9wq99666555>1<1<-;;#-%((((((((((",
"((((((((PLKSSSSCCCNNmnbbzlldpiiuywqqq6665<111<1=-;;;%:((((((((((",
"(((((((((PLDDSSZCCNmmbbvzkddpiiqwww9q555553,1<<,----;#((((((((((",
"((((((((((((((((((((((((zkkddpiyww99599555351<<,---#;#%(((((((((",
"(((((((((((((((((((((((((lkdppiyy9w959955<3,<<<,,,-;;;#(((((((((",
"((((((((((((((((((((((((((kddiiuwy9999555535<<<,---;####((((((((",
"((((((((((((((((((((((((((lddiuuwww995495433,<<,:::&&&%(((((((((",
"(((((((((((((((((((((((((((dpiuquw9999645433<<<,::&:((((((((((((",
"(((((((((((((((((((((((((((ddiuywww999665433<<<,((((((((((((((((",
"(((((((((((((((((((((((((((ddpuyeww999664434((((((((((((((((((((",
"(((((((((((((((((((((((((((daiiyw9w959499(((((((((((((((((((((((",
"((((((((((((((((((((((((((((aaiyyy999(((((((((((((((((((((((((((",
"((((((((((((((((((((((((((((aiuuww((((((((((((((((((((((((((((((",
"((((((((((((((((((((((((((((aa(((((((((((((((((((((((((((((((((("
};
