/* XPM */
static char *_641230414803[] = {
/* columns rows colors chars-per-pixel */
"64 64 129 2 ",
"   c #250223",
".  c #250324",
"X  c #260224",
"o  c #280126",
"O  c #280127",
"+  c #290127",
"@  c #290128",
"#  c #290228",
"$  c #2B0229",
"%  c #2C012A",
"&  c #2C022A",
"*  c #2F012D",
"=  c #2E022C",
"-  c #2F022D",
";  c #2F012E",
":  c #2C092B",
">  c #2E092C",
",  c #2D0A2C",
"<  c #30012E",
"1  c #31022F",
"2  c #330131",
"3  c #320230",
"4  c #330231",
"5  c #340232",
"6  c #340233",
"7  c #360134",
"8  c #350234",
"9  c #370235",
"0  c #390137",
"q  c #380236",
"w  c #3A0238",
"e  c #3B0238",
"r  c #3C0239",
"t  c #3C013A",
"y  c #3E023B",
"u  c #3F023C",
"i  c #3F023D",
"p  c #40013D",
"a  c #40023E",
"s  c #420140",
"d  c #430140",
"f  c #420240",
"g  c #430241",
"h  c #440241",
"j  c #460143",
"k  c #450242",
"l  c #470244",
"z  c #480245",
"x  c #490146",
"c  c #4A0247",
"v  c #4B0249",
"b  c #4C0149",
"n  c #4C014A",
"m  c #4C024A",
"M  c #4D024A",
"N  c #4E024B",
"B  c #4F014C",
"V  c #50024C",
"C  c #50024D",
"Z  c #52014F",
"A  c #53014F",
"S  c #51024E",
"D  c #53024F",
"F  c #530250",
"G  c #540251",
"H  c #550251",
"J  c #560152",
"K  c #550253",
"L  c #560253",
"P  c #570254",
"I  c #580155",
"U  c #580255",
"Y  c #590156",
"T  c #5A0257",
"R  c #5B0257",
"E  c #5B0158",
"W  c #5D0259",
"Q  c #5E025A",
"!  c #5E025B",
"~  c #60035C",
"^  c #60025D",
"/  c #61025D",
"(  c #62025E",
")  c #62035F",
"_  c #63035F",
"`  c #630360",
"'  c #640260",
"]  c #650361",
"[  c #650362",
"{  c #660263",
"}  c #670363",
"|  c #680364",
" . c #690265",
".. c #6A0366",
"X. c #6B0267",
"o. c #6C0267",
"O. c #6C0368",
"+. c #6D0368",
"@. c #6E026A",
"#. c #6E036A",
"$. c #6F026B",
"%. c #6E036B",
"&. c #70026C",
"*. c #70036C",
"=. c #71026D",
"-. c #70036D",
";. c #71036D",
":. c #72026D",
">. c #72036D",
",. c #72026E",
"<. c #73026E",
"1. c #72036E",
"2. c #72026F",
"3. c #73036F",
"4. c #74036F",
"5. c #740270",
"6. c #740370",
"7. c #760271",
"8. c #760371",
"9. c #760272",
"0. c #770272",
"q. c #770372",
"w. c #780273",
"e. c #780373",
"r. c #790374",
"t. c #790375",
"y. c #7A0275",
"u. c #7B0276",
"i. c #7B0277",
/* pixels */
", , , > > > > > > > > > > > > > , > > , > > > > > > > > , 1 > > > > > > > > > > , > > , > > > > > > > > > > > > > > > > > > > > ",
"O O O O O O O O O O O O O O o $ % X O O O O O O $ O $ O O O O O O O O O $ o $ O % X O O O O O O $ O $ O O O O O O $ O O O O O o ",
"% % % % % % % % % % % $ $ $ $ $ % % % % % % % % $ $ % % % % % % % $ $ $ $ $ $ $ % % % % % % % % $ $ $ % % % % % % % % $ $ $ $ $ ",
"< < < < ; ; ; ; < < < < < < < < ; ; ; ; < < < % < < < < < % ; ; < < < < < < < < ; ; ; ; < < < % < < < < % ; ; ; < < < < < < < < ",
"< 4 4 4 4 4 2 2 4 4 4 4 1 1 4 4 2 2 2 2 2 2 2 2 1 1 < 4 4 4 2 2 4 4 4 4 1 1 1 7 2 2 2 2 2 2 2 2 1 1 4 4 4 4 2 2 4 4 4 4 1 1 1 1 ",
"4 7 7 4 7 7 7 7 0 4 0 4 7 7 7 7 7 7 7 7 7 7 7 7 7 7 0 4 4 0 7 7 0 4 0 4 7 7 7 7 7 7 7 7 7 7 7 7 7 7 7 4 7 7 7 7 0 4 0 4 7 7 7 7 ",
"0 0 0 0 e e 7 e 0 0 0 0 0 0 e e 0 0 0 e 0 0 e e e 0 0 0 0 0 0 0 0 0 0 0 0 0 e 0 0 0 e e e 7 e e e 0 0 0 0 0 0 e 0 0 0 0 0 0 e 7 ",
"y y y e y e t t e y y 0 y y e y t t e t t e t t y y 0 y y y e y e y e y y e y e t t e t t t t t y y e y y y e e y y 0 y y e y e ",
"p p p t p p p p t p t p p p p p p p p t p p p p p t p p p p p p p p p p p p p t p p p p p p p t p p p t p p p p y p t p p p p t ",
"d d d d d d d d d d d d d d d d d d d d d d d d d d d d d d d p p d d d d d d d d d d d d d d d d d d d d d d d d p d d d d d d ",
"d j d x d j d j j j j j j j j j j j j d j d j d j j j j j j d x j j j j j j j d j d j j j j j d j j d x d j d j j j j j j j j d ",
"j v x x x v x x x x x x x v j v x x x x v x v x x v x x x x x x x x x x x x x x v v j v x x x x x v x x x v x x x x x x x x v j ",
"n v n n n n b b b n n n v v n n n n b b b n n n v n n n n n b n v n n b b b n b v n n b b b n b v v n n n n b b b n n n v v n v ",
"B B C n C C V V V V V C B B C n C C V V V V V C B B C n V C n V B B V C C n V C B B C C C n V C B B C n C C V V n V C C B B B v ",
"C G C G G C C G C C G C C G C G G C C G C C G C A A C G C G F F C C G G C A A G C G C G C A A G A A C G G C C G A C G C C G F B ",
"G J J G J J J J J J J J J J J G J J J J J J J J G J J G I G G G G I G J J J G J G J J J J J G J G J J G J J J J J J J J J J J C ",
"I I I I I I I I P P I I I I I I I I I I I I I I P P I I I I I I I I I I I I I P I I I I I I P P I G I I I I I P P I I I I I I P ",
"I E E E E E E E E E E E E E E E E E E E E E E E E E E E E E E E E E E E E E E Q E E E E E E E E Q Q E Q I Q Q E E E E E E E E P ",
"Q Q Q Q Q Q Q Q Q Q Q Q ! Q Q Q Q Q Q Q Q Q Q Q Q Q Q Q ! Q Q Q Q Q Q Q Q Q Q Q Q Q Q Q ! ! ! Q Q Q Q Q Q Q Q Q Q Q Q Q Q Q Q E ",
"/ / / / / / / / / / / / / / / / / / / / / / / / / / / / / / / / / / / / / / / / / / / / / / / / / / / / / / / / / / / / / / / Q ",
"/ { _ { _ { _ _ ' ' ' ' ' ' ' { / { _ { { / { / ' ' ' ' ' ' ' { { / { / { / { / { ' ' ' ' ' ' ' ' ' { / { _ { / / { / { ' ' ' ! ",
"{ { { { } { { { { { { { { { { { { { { { { { { { { { { { { { { { { { { { { { { { { { { { { { { { { { { { { { { { { { { { { { { { ",
"{ }  . . . . . . . . . . . . . . . . . . . . . . . . . . . . . . . . . . . . . . . . . . . .X.{  . . . . . . . . . . . . . . .{ ",
" .o. .o.O. .o.o.X.X.X.X.X.X.X.X.o.o. .O.O. .O.O.X.X.X.X.X.X.X.X.O. .o.o.X.X.X.X.X.X.X. .X.X.X.X. .O. .O.o. .O.o.o.o.o.O. .o. .} ",
"O.O.*.O.O.$.O.$.$.$.$.O.O.$.O.O.O.O.O.$.O.$.O.$.$.$.$.O.O.$.O.O.O.:.$.O.$.$.$.$.O.O.$.O.$.$.$.$.$.$.O.$.$.O.O.O.O.O.$.O.$.$.$.X.",
"*.*.*.:.:.:.:.$.$.$.$.:.$.:.:.:.:.:.$.:.:.:.:.$.$.$.$.:.$.:.:.:.:.$.$.$.$.$.$.$.:.$.:.$.$.:.$.$.$.:.$.$.:.:.:.:.:.:.$.$.$.$.$.X.",
"$.5.:.:.:.:.:.<.$.5.5.:.:.:.<.<.5.:.5.:.:.:.:.<.$.5.5.:.:.:.<.<.:.:.:.5.$.5.5.:.:.:.<.<.:.5.:.:.5.$.5.:.:.:.<.:.:.:.:.5.:.5.5.O.",
":.O.:.:.<.9.<.9.5.5.5.5.9.<.9.<.5.5.5.5.<.9.<.9.5.5.5.5.9.<.9.<.5.5.5.5.5.5.5.5.9.<.9.<.5.5.5.5.5.5.5.5.5.5.<.9.9.5.5.5.5.5.9.$.",
"5.:.*.*.:.<.w.<.9.9.9.9.<.w.w.<.9.9.9.9.9.<.w.<.9.9.9.9.<.w.w.<.<.w.<.w.9.9.9.9.w.<.w.7.<.w.<.w.9.9.9.9.<.w.w.<.9.w.<.w.9.9.9.:.",
"9.9.w.w.9.w.w.w.w.w.w.t.w.w.w.w.9.9.w.w.w.w.w.w.w.w.w.t.w.w.w.w.w.w.w.w.w.w.t.9.w.w.w.w.w.w.w.w.w.w.t.9.w.w.w.w.w.w.w.w.w.w.9.1.",
"9.t.t.u.t.t.u.w.t.t.t.u.t.u.w.u.t.t.t.u.u.u.u.w.t.t.t.u.t.u.w.u.u.u.u.t.t.t.t.t.u.w.t.u.u.u.u.t.t.t.t.t.u.u.w.u.w.u.u.t.t.t.t.9.",
"t.u.u.u.u.u.u.u.t.i.u.u.u.u.u.u.u.u.u.u.u.u.u.u.t.i.u.u.u.u.u.u.u.u.u.u.u.u.u.u.u.u.u.u.u.u.u.u.u.u.u.u.u.u.u.u.u.u.u.u.u.u.u.q.",
"t.u.u.u.u.u.t.t.u.u.u.u.u.u.u.t.u.u.u.u.u.u.t.t.u.u.u.u.u.u.u.t.u.u.u.u.u.u.u.u.u.u.u.u.u.u.u.u.u.u.u.u.t.u.u.u.u.u.u.u.u.u.u.w.",
"w.t.u.u.u.t.u.t.t.u.u.w.t.u.t.t.u.t.u.u.u.t.u.t.u.w.u.t.t.u.t.t.w.u.u.w.w.u.t.u.t.t.t.u.u.t.w.u.u.u.u.w.t.t.u.t.t.u.u.u.u.w.w.w.",
"w.w.w.w.t.w.9.w.w.w.w.w.w.w.9.t.w.w.w.w.t.w.9.w.w.w.w.w.w.w.9.t.w.w.w.w.w.w.w.w.9.9.w.w.w.w.w.w.w.w.w.w.9.t.w.w.w.w.w.w.w.w.w.<.",
"<.<.<.9.9.9.9.9.<.w.9.w.<.w.9.9.w.<.<.9.9.9.9.9.<.w.w.<.9.w.9.9.w.<.w.w.<.w.<.w.9.9.9.5.9.9.<.w.<.w.<.w.9.9.9.9.w.<.w.<.9.9.w.<.",
"<.9.9.:.5.5.5.5.<.9.<.9.5.5.5.5.<.9.<.9.5.5.5.5.<.9.<.9.5.5.5.5.5.5.5.5.9.<.9.<.5.5.5.5.5.9.:.9.9.<.5.5.5.5.5.5.5.5.5.5.<.9.9.O.",
":.:.:.:.:.5.5.:.<.<.:.:.:.:.:.:.<.<.:.:.:.5.5.:.<.<.:.:.:.:.:.:.5.:.:.5.<.:.:.:.:.5.:.5.:.:.:.:.<.<.:.:.:.5.$.5.:.:.5.:.:.:.5.$.",
"$.$.:.$.$.$.:.$.:.$.:.$.:.:.:.:.$.:.$.:.$.$.:.$.:.$.:.$.:.:.:.:.$.$.:.$.$.:.:.:.$.:.$.:.$.$.:.*.:.:.:.:.$.$.:.$.$.$.:.$.$.:.$.O.",
"O.$.$.O.$.$.O.$.O.:.O.O.*.O.O.O.O.$.O.O.$.$.O.$.O.:.O.O.*.O.O.O.O.$.$.O.$.$.O.O.$.O.$.$.O.$.*.O.O.O.O.$.$.O.$.$.$.$.$.$.O.$.O...",
"X.X.O.O.o.o.o.o.o.o.o.o.o.o.o.o.O.O.o.o.o.o.o.o.O.o.o.o.o.o.o.o.X.X.O.O.O.o.o.o.o.o.o.o.o.o.o.o.o.o.o.o.o.o.o.o.X.X.X.O.O.O.o. .",
"|  . .{  . . . . . . . . . . . . . . .}  . . . . . . . . . . .}  . . . . . . . . . . . . . . . . . . . . . . . . . . . . . . .{ ",
"} { { { { { { { { { { } { { { } { { { { { { { { { { { { { { { { { { { { { { { { { { { { { { { { { { { { { { { { { { { { { { { / ",
") ' ' ' / { / { _ _ { _ _ { _ _ { { / { _ _ { _ / { / { { _ _ { ' ' ' { / { / { { _ _ { / { / { { _ _ { / { / { ' ' ' ' { / { / ",
"/ / / / / / / / / / / / / / / / / / / / / / / / / / / / / / / / / / / / / / / / / / / / / / / / / / / / / / / / / / / / / / / Q ",
"Q Q Q Q Q Q Q Q Q Q Q Q Q Q Q Q Q Q Q Q Q Q Q Q Q Q Q Q Q Q Q Q Q Q Q Q Q Q Q Q Q Q Q Q Q Q Q Q Q Q Q Q Q Q Q Q Q Q Q Q Q Q / I ",
"I E E E E Q Q I E E E E E E E E E E E E E E E E E E E E E E Q E E E E E E E E E I Q I Q I Q E E I Q I Q E E E E E E Q E I Q I I ",
"P I I I P I I I I I I I I I I I I I I I I I I I I I I I I I I I P P I I I I I I I I I I I I I I I I I J I I I I I P I I I I I I ",
"G G J J G G P G I G G J J J J J F P G G G P G G J J J J G G P G J J J J G G G G P G P G G F P F G J J J G G P G I G J J J J J G ",
"C F C G F F F C C G G C A C C G Z F F F C F F F G C C G F F F C G C G C G F G F F C F F F F F F G C C G F F F C C G C A G C G C ",
"n B C C B B B B C C B B B C C C B B B B B B B B B B C C B B B B B B B B C B B B B B B B B B B B B C C C B B B B C C C n V C C n ",
"n n n n n n n v n n n n n n n n n n n n n n n n n n n n n v v B n n n n n n v v n n v v B v n n n n n n n n n v n n n n n n n x ",
"x x x x x x x x x x x x x x x x x x x x x x x x x x v x x x v j x x x x v v j v x x x x x x x x x x x x x x x x x x x x x x x j ",
"d d j j j j j j j j j j d x x d j j j j j j j j x d j j j d j j d x x d j j j j d x x d j j j j x d j j j j j j j j j j d x j d ",
"d d d d d d d d d d d d d d d d d d d g d s d d d d d d d d d d d d d d d d d d d d d d d d d g d d d d d d d d d d d d d d d p ",
"a p p p p p t d d t p p p p p t d t s t s t d t p p t p p p t d p p p t t d t p p p p t d t s t p p t p p p t d d t p p t p p p ",
"e t t e e e e y e t t t t t t t e y e e t t e t t t t e e e e y y e e t t t t t e y e e t t e t t t t e t t y e y e e t t t t e ",
"0 0 0 e e 0 e 0 0 e 0 0 0 0 0 0 0 0 e 0 0 e 0 0 0 0 0 e e 0 e 0 e e 0 0 0 0 0 0 0 0 e 0 0 e 0 0 0 0 e 0 e 7 e e 0 e 0 0 e 0 0 7 ",
"6 7 7 7 7 7 4 7 7 7 7 7 7 7 7 7 7 7 7 7 7 7 7 7 7 7 7 7 7 7 4 7 7 7 7 7 7 7 7 7 7 7 7 7 7 7 7 7 7 7 7 7 7 7 4 7 7 7 7 7 7 7 7 6 ",
"2 6 2 2 2 2 2 2 2 2 2 2 2 2 2 2 2 2 2 < 2 2 2 2 2 2 2 2 2 2 2 2 2 2 2 2 2 2 2 2 2 2 2 < 2 2 2 2 2 2 2 2 2 2 2 2 2 2 2 2 2 2 2 1 ",
"; ; ; ; ; ; ; ; ; ; ; ; ; ; ; ; ; ; ; ; ; ; ; ; ; ; ; ; ; ; ; ; ; ; ; ; ; ; ; ; ; ; ; ; ; ; ; ; ; ; ; ; ; ; ; ; ; ; ; ; ; ; ; ; ",
"% % % % % % % % % % % % % % % % % % % % % % % % % % % % % % % % % % % % % % % % % % % % % % % % % % % % % % % % % % % % % % % % ",
"O O O % O O % O X % % O O O O % % O O O X % % O O O O % O O % O X % % O O O O % % O X % O % O O O % O O O O O % % X O O O % O X ",
". X X   X X   X X   X X X X X   X X X X X X X X X X X   X X   X X   X X X X X   X X X X     X X X X X X X X X X X X X X X X X X "
};
