/* XPM */
static char *result[] = {
/* columns rows colors chars-per-pixel */
"64 64 106 2 ",
"   c #040404",
".  c #060709",
"X  c #0C0C0C",
"o  c #0F110F",
"O  c #0E0E13",
"+  c #131313",
"@  c #181717",
"#  c #161718",
"$  c #1C1C1C",
"%  c #201C19",
"&  c #343217",
"*  c #393516",
"=  c #383816",
"-  c #1C1D20",
";  c #201F20",
":  c #232323",
">  c #2D2A27",
",  c #242629",
"<  c #2C2C2C",
"1  c #322F2E",
"2  c #34312F",
"3  c #2E2E35",
"4  c #333333",
"5  c #3C3731",
"6  c #3E3936",
"7  c #3B3B3B",
"8  c #403834",
"9  c #44411A",
"0  c #57551C",
"q  c #5C561B",
"w  c #615C1E",
"e  c #4C453D",
"r  c #686323",
"t  c #726B28",
"y  c #7E7723",
"u  c #7C762C",
"i  c #444444",
"p  c #45464B",
"a  c #4B4B4B",
"s  c #5C4F48",
"d  c #5C5246",
"f  c #51514F",
"g  c #535353",
"h  c gray36",
"j  c #6F6459",
"k  c #7A7A5A",
"l  c #636363",
"z  c #6B6B6B",
"x  c #7C6D61",
"c  c #7C7368",
"v  c #727272",
"b  c #77787D",
"n  c #7A7A7A",
"m  c #827919",
"M  c #857766",
"N  c #A5A01D",
"B  c #B4AA18",
"V  c #938C23",
"C  c #E4D714",
"Z  c #8F8071",
"A  c #948472",
"S  c #9E8E7A",
"D  c #838383",
"F  c #8C8C8D",
"G  c #949494",
"H  c #9C9C9C",
"J  c #A29784",
"K  c #AD9C86",
"L  c #AA9D8A",
"P  c #AEA28F",
"I  c #B2A186",
"U  c #B2A08A",
"Y  c #B9AA8F",
"T  c #B1A692",
"R  c #BBAA95",
"E  c #BCAD99",
"W  c #9F9FA3",
"Q  c #A3A3A3",
"!  c #AAAAAA",
"~  c #B3B3B3",
"^  c #BBBBBB",
"/  c #CDB597",
"(  c #CDB99C",
")  c #D2BB9E",
"_  c #C7BAA1",
"`  c #D7C2A6",
"'  c #DCC6A4",
"]  c #DCC6A9",
"[  c #DBCAAF",
"{  c #E3CEB2",
"}  c #E5D2B5",
"|  c #E8D5B7",
" . c #E7D6B9",
".. c #E9D6B9",
"X. c #EDDABB",
"o. c #F3DEBF",
"O. c #C5C5C5",
"+. c #CCCCCC",
"@. c #D5D5D5",
"#. c #DBDBDB",
"$. c #F4DFC2",
"%. c #F6E2C3",
"&. c #E4E4E4",
"*. c #ECECEC",
"=. c #F4F4F4",
"-. c #FFFFFF",
/* pixels */
"-.-.-.-.-.-.-.-.-.-.-.-.-.-.-.-.-.-.-.-.-.-.-.-.-.-.-.-.-.-.-.-.-.-.-.-.-.-.-.-.-.-.-.-.-.-.-.-.-.-.-.-.-.-.-.-.-.-.-.-.-.-.-.-.",
"-.-.-.-.-.-.-.-.-.-.-.-.-.-.-.-.-.-.-.-.-.-.-.-.-.-.-.-.-.-.-.-.-.-.-.-.-.-.-.-.-.-.-.-.-.-.-.-.-.-.-.-.-.-.-.-.-.-.-.-.-.-.-.-.",
"-.-.-.-.-.-.-.-.-.-.-.-.-.-.-.-.-.-.-.-.-.-.-.-.-.-.-.-.-.-.-.-.-.-.-.-.-.-.-.-.-.-.-.-.-.-.-.-.-.-.-.-.-.-.-.-.-.-.-.-.-.-.-.-.",
"-.-.-.-.-.-.-.-.-.-.-.-.-.-.-.-.-.-.-.-.-.-.-.-.-.-.-.-.-.-.-.-.-.-.-.-.-.-.-.-.-.-.-.-.-.-.-.-.-.-.-.-.-.-.-.-.-.-.-.-.-.-.-.-.",
"-.-.-.-.-.-.-.-.-.-.-.-.-.-.-.-.-.-.-.-.-.-.-.-.-.-.-.-.-.-.-.-.-.-.-.-.-.-.-.-.-.-.-.-.-.-.-.-.-.-.-.-.-.-.-.-.-.-.-.-.-.-.-.-.",
"-.-.-.-.-.-.-.-.-.-.-.-.-.-.-.-.-.-.-.-.-.-.-.-.-.-.-.-.-.-.-.-.-.-.-.-.-.-.-.*.#.-.=.-.-.-.-.-.-.-.-.-.-.-.-.-.-.-.-.-.-.-.-.-.",
"-.-.-.-.-.-.-.-.-.-.-.-.-.-.-.-.-.-.=.-.~ &.-.-.-.-.-.-.-.-.-.-.-.-.-.-.-.-.-.^ @ #.-.-.-.-.-.-.-.-.-.-.-.-.-.-.-.-.-.-.-.-.-.-.",
"-.-.-.-.-.-.-.-.-.-.-.-.-.-.-.-.-.-.-.-.i H -.=.-.-.-.-.=.-.-.-.-.=.-.-.-.=.-.D   z -.-.-.-.-.-.-.-.-.-.-.-.-.-.-.-.-.-.-.-.-.-.",
"-.-.-.-.-.-.-.-.-.-.-.-.-.-.-.-.-.-.-.#.# f -.-.-.-.-.-.-.-.-.-.-.-.-.-.-.-.-.7 # > &.-.-.-.-.-.-.-.-.-.-.-.-.-.-.-.-.-.-.-.-.-.",
"-.-.-.-.-.-.-.-.-.-.-.-.-.-.-.-.-.=.-.Q + : @.-.=.-.-.@.F z l l n H @.=.-.-.@.# ; ; Q -.-.-.-.-.-.-.-.-.-.-.-.-.-.-.-.-.-.-.-.-.",
"-.-.-.-.-.-.-.-.-.-.-.-.-.-.-.-.-.-.-.v + : G -.-.O.l , ; : , : : $ : i G -.H . : : z -.=.-.-.-.-.-.-.-.-.-.-.-.-.-.-.-.-.-.-.-.",
"-.-.-.-.-.-.-.-.-.-.-.-.-.-.-.-.-.-.-.p X : g #.g + ; 4 7 4 4 4 4 4 4 < + g p o ; , a -.-.-.-.-.-.-.-.-.-.-.-.-.-.-.-.-.-.-.-.-.",
"-.-.-.-.-.-.-.-.-.-.-.-.-.-.-.-.-.-.=.1 + < < o + 4 4 4 4 < 4 4 4 4 1 4 7 + o @ $ 1 4 *.-.-.-.-.-.-.-.-.-.-.-.-.-.-.-.-.-.-.-.-.",
"-.-.-.-.-.-.-.-.-.-.-.-.-.-.-.-.-.-.#.$ @ : 4 @ 4 4 4 4 4 4 4 4 4 4 4 1 4 ; # $ : 4 , &.-.-.-.-.-.-.-.-.-.-.-.-.-.-.-.-.-.-.-.-.",
"-.-.-.-.-.-.-.-.-.-.-.-.-.-.-.-.=.-.@.+ @ $ $ , 4 4 4 4 4 4 4 < 4 4 4 4 4 < 1 4 4 4 , #.-.-.-.-.-.-.-.-.-.-.-.-.-.-.-.-.-.-.-.-.",
"-.-.-.-.-.-.-.-.-.-.-.-.-.-.-.-.-.-.+.o $ @ $ 1 4 4 4 4 4 4 4 4 4 4 3 2 4 4 4 4 1 4 : H -.-.-.-.-.-.-.-.-.-.-.-.-.-.-.-.-.-.-.-.",
"-.-.-.-.-.-.-.-.-.-.-.-.-.-.-.-.-.-.D X $ @ : 4 4 4 4 4 4 4 4 4 4 4 4 4 4 4 4 4 3 4 4 $ +.-.-.-.-.-.-.-.-.-.-.-.-.-.-.-.-.-.-.-.",
"-.-.-.-.-.-.-.-.-.-.-.-.-.-.-.-.-.@.# @ @ @ , 4 4 4 4 1 1 3 3 4 4 3 4 4 4 4 4 < 4 1 7 : f -.-.-.-.-.-.-.-.-.-.-.-.-.-.-.-.-.-.-.",
"-.-.-.-.-.-.-.-.-.-.-.-.-.-.-.=.-.v   $ $ @ < 4 4 1 4 4 4 4 1 4 4 4 4 4 4 4 4 4 4 4 4 4 - +.-.-.-.-.-.-.-.-.-.-.-.-.-.-.-.-.-.-.",
"-.-.-.-.-.-.-.-.-.-.-.-.-.-.-.-.-.7 + $ $ $ 2 4 4 1 4 4 4 4 4 4 < 4 4 4 4 < 4 4 4 4 1 7 $ G -.=.-.-.-.-.-.-.-.-.-.-.-.-.-.-.-.-.",
"-.-.-.-.-.-.-.-.-.-.-.-.-.-.-.-.&.$ @ X + ; < 4 4 4 4 4 4 4 4 4 4 4 4 4 4 4 4 1 4 4 7 < $ v -.-.-.-.-.-.-.-.-.-.-.-.-.-.-.-.-.-.",
"-.-.-.-.-.-.-.-.-.-.-.-.-.-.-.-.@.@ o h 7   4 4 4 4 4 3 4 4 3 4 4 4 4 4 1 4 4 4 4 < : < - j -.-.-.-.-.-.-.-.-.-.-.-.-.-.-.-.-.-.",
"-.-.-.-.-.-.-.-.-.-.-.-.-.-.-.-.O.+ . D =.h $ 1 4 4 4 4 4 4 1 4 1 4 4 1 4 4 4 4 ; , Q n # h -.=.-.-.-.-.-.-.-.-.-.-.-.-.-.-.-.-.",
"-.-.-.-.-.-.-.-.-.-.-.-.-.-.=.-.O.+ X b -.-.! 7 : 4 4 4 1 4 4 4 4 4 4 1 4 7 , : v #.-.z # l -.-.-.-.-.-.-.-.-.-.-.-.-.-.-.-.-.-.",
"-.-.-.-.-.-.-.-.-.-.-.-.-.-.-.-.@.@ + 7 =.-.-.&.z @ 4 4 4 4 4 4 4 4 4 4 4 $ g O.-.-.=.a @ v -.-.-.-.-.-.-.-.-.-.-.-.-.-.-.-.-.-.",
"-.-.-.-.-.-.-.-.-.-.-.-.-.-.-.-.&.; @ o a ^ =.-.-.~ < < 4 4 4 1 4 4 4 : 4 ! -.-.-.=.D < ; F -.=.-.-.-.-.-.-.-.-.-.-.-.-.-.-.-.-.",
"-.-.-.-.-.-.-.-.-.-.-.-.-.-.-.-.-.7 o $ o X 4 v H #.O.i , 5 4 4 4 4 , l #.*.O.Q v 7 : 7 ; ^ -.-.-.-.-.-.-.-.-.-.-.-.-.-.-.-.-.-.",
"-.-.-.-.-.-.-.-.-.-.-.-.-.-.-.=.-.v X ; ; - @ ; $ $ 7 i : , : < : , < g i , : ; : 4 4 < 4 =.-.-.-.-.-.-.-.-.-.-.-.-.-.-.-.-.-.-.",
"-.-.-.-.-.-.-.-.-.-.-.-.-.-.-.-.-.^ X $ @ $ @ < 7 4 4 , > j U R A e ; , 4 4 4 7 4 4 4 : n -.-.-.-.-.-.-.-.-.-.-.-.-.-.-.-.-.-.-.",
"-.-.-.-.-.-.-.-.-.-.-.-.-.-.-.-.-.-.i X $ @ @ $ 4 4 , 5 R o.%.X.o.} S 4 , 4 4 4 4 4 4 < @.-.-.-.-.-.-.-.-.-.-.-.-.-.-.-.-.-.-.-.",
"-.-.-.-.-.-.-.-.-.-.-.-.-.-.-.-.-.-.~ X ; @ $ @ 4 , e ] %. .} } ..X.%.) e , 4 2 4 7 $ n -.=.-.-.-.-.-.-.-.-.-.-.-.-.-.-.-.-.-.-.",
"-.-.-.-.-.-.-.-.-.-.-.-.-.-.-.-.-.=.-.z   : $ $ # 6 ] X.| ( T P P {  .X.] e , 4 7 : i =.-.-.-.-.-.-.-.-.-.-.-.-.-.-.-.-.-.-.-.-.",
"-.-.-.-.-.-.-.-.-.-.-.-.-.-.-.-.-.-.-.=.g . : @ o K o.}  .{  .X.[ { ..| X.( > 4 < < #.-.-.-.-.-.-.-.-.-.-.-.-.-.-.-.-.-.-.-.-.-.",
"-.-.-.-.-.-.-.-.-.-.-.-.-.-.-.-.-.-.-.-.=.h . X d ) ` X.| X. .} X. ... .} o.A o 7 @.-.=.-.-.-.-.-.-.-.-.-.-.-.-.-.-.-.-.-.-.-.-.",
"-.-.-.-.-.-.-.-.-.-.-.-.-.-.-.-.-.-.-.-.-.-.D o I ' / ]  .} } } | } }  .%.%.A f &.-.-.-.-.-.-.-.-.-.-.-.-.-.-.-.-.-.-.-.-.-.-.-.",
"-.-.-.-.-.-.-.-.-.-.-.-.-.-.-.-.-.-.-.-.-.=.-.v % x I / } %.$.$.o.%.%. .J 5   O.-.=.-.-.-.-.-.-.-.-.-.-.-.-.-.-.-.-.-.-.-.-.-.-.",
"-.-.-.-.-.-.-.-.-.-.-.-.-.-.-.-.-.-.-.-.-.=.-.g X X # 5 d M I E R P c 2   + X H -.-.-.-.-.-.-.-.-.-.-.-.-.-.-.-.-.-.-.-.-.-.-.-.",
"-.-.-.-.-.-.-.-.-.-.-.-.-.-.-.-.-.-.-.-.-.-.O.< < % : . X . # # $ o . @ ; > : 4 &.-.-.-.-.-.-.-.-.-.-.-.-.-.-.-.-.-.-.-.-.-.-.-.",
"-.-.-.-.-.-.-.-.-.-.-.-.-.-.-.-.-.-.-.-.-.-.l : < < 4 @ 4 @ - @ $ # $ 4 3 < 4 $ z -.-.-.-.-.-.-.-.-.-.-.-.-.-.-.-.-.-.-.-.-.-.-.",
"-.-.-.-.-.-.-.-.-.-.-.-.-.-.-.-.-.-.-.-.-.@., 4 < < 4 ; < o - 4 , @ X 4 4 4 1 4 : &.-.-.-.-.-.-.-.-.-.-.-.-.-.-.-.-.-.-.-.-.-.-.",
"-.-.-.-.-.-.-.-.-.-.-.-.-.-.-.-.-.-.-.=.-.F : 4 4 4 3 < : @ i , i a $ : 4 2 4 4 ; ~ -.-.-.-.-.-.-.-.-.-.-.-.-.-.-.-.-.-.-.-.-.-.",
"-.-.-.-.-.-.-.-.-.-.-.-.-.-.-.-.-.-.-.-.-.a < 4 4 4 4 4 @ 7 Q f F H 1 $ 4 : 4 7 @ G -.-.-.-.-.-.-.-.-.-.-.-.-.-.-.-.-.-.-.-.-.-.",
"-.-.-.-.-.-.-.-.-.-.-.-.-.-.-.-.-.-.-.-.*.< 2 4 4 4 4 > + g W F F W i @ 4 $ 4 4 @ G -.=.-.-.-.-.-.-.-.-.-.-.-.-.-.-.-.-.-.-.-.-.",
"-.-.-.-.-.-.-.-.-.-.-.-.-.-.-.-.-.-.-.-.@.@ 4 4 4 , 1 : + g k y t b p + 4 - : 7 @ W -.-.-.-.-.-.-.-.-.-.-.-.-.-.-.-.-.-.-.-.-.-.",
"-.-.-.-.-.-.-.-.-.-.-.-.-.-.-.-.-.-.-.-.O.o 4 4 4 : 1 ; 9 V N C B u r = 3 : $ 7 + Q -.-.-.-.-.-.-.-.-.-.-.-.-.-.-.-.-.-.-.-.-.-.",
"-.-.-.-.-.-.-.-.-.-.-.-.-.-.-.-.-.-.=.-.^ X 4 4 4 ; < $ = 0 q m 0 9 q & 3 , # 7 o ! -.=.-.-.-.-.-.-.-.-.-.-.-.-.-.-.-.-.-.-.-.-.",
"-.-.-.-.-.-.-.-.-.-.-.-.-.-.-.-.-.=.=.-.O.X < 4 4 @ < # O , 3 : : 3 $ o 4 > + 4 + ~ -.-.=.=.-.-.-.-.-.-.-.-.-.-.-.-.-.-.-.-.-.-.",
"-.-.-.-.-.-.-.-.-.-.-.-.-.-.-.-.-.#.l Q G # , 4 4 @ < O @ 1 5 4 4 4 ; # 4 < + < $ D +.Q g +.-.-.-.-.-.-.-.-.-.-.-.-.-.-.-.-.-.-.",
"-.-.-.-.-.-.-.-.-.-.-.-.-.-.-.-.-.-.D X $ + : 4 < # < o o : 1 2 4 < + + 4 1 o , , . $ - $ &.-.-.-.-.-.-.-.-.-.-.-.-.-.-.-.-.-.-.",
"-.-.-.-.-.-.-.-.-.-.-.-.-.-.-.-.-.-.-.a % X : 7 : # < # : a 7 : 4 i > + 4 2 + ; > o 3 < < =.-.-.-.-.-.-.-.-.-.-.-.-.-.-.-.-.-.-.",
"-.-.-.-.-.-.-.-.-.-.-.-.-.-.-.-.-.=.-.v X + : 4 $ @ 1 # < F H $ W G , # 1 4 + $ 4 # $ : # +.-.-.-.-.-.-.-.-.-.-.-.-.-.-.-.-.-.-.",
"-.-.-.-.-.-.-.-.-.-.-.-.-.-.-.-.-.-.-.a X o < 4 # $ 4 + X p l X z 7 X + 4 4 $ + 1 : # - . Z -.=.-.-.-.-.-.-.-.-.-.-.-.-.-.-.-.-.",
"-.-.-.-.-.-.-.-.-.-.-.-.-.-.-.-.-.-.+.+ # # 4 < + : 4 # o $ +   + ; o + > 7 - + : < $ ; # $ #.-.-.-.-.-.-.-.-.-.-.-.-.-.-.-.-.-.",
"-.-.-.-.-.-.-.-.-.-.-.-.-.-.-.-.-.-.i X @ ; 4 $ + < 4 @ + X h @.7 @ o $ % 4 , o $ - o . #   7 =.-.-.-.-.-.-.-.-.-.-.-.-.-.-.-.-.",
"-.-.-.-.-.-.-.-.-.-.-.-.-.-.-.-.-.z X , $ o $ @ + 4 : # X 4 #.-.~ o X X . o 4 $ @ . g ~ +.+.H O.-.-.-.-.-.-.-.-.-.-.-.-.-.-.-.-.",
"-.-.-.-.-.-.-.-.-.-.-.-.-.-.-.-.O.H &.*.&.^ 4 X : @ X 4 + H -.=.-.Q + l n g ; : X H -.-.-.-.-.-.-.-.-.-.-.-.-.-.-.-.-.-.-.-.-.-.",
"-.-.-.-.-.-.-.-.-.-.-.-.-.-.-.-.=.-.-.-.-.-.&.< + 7 +.=.&.~ =.-.-.@.#.-.-.-.^   F -.=.-.-.-.=.-.-.-.-.-.-.-.-.-.-.-.-.-.-.-.-.-.",
"-.-.-.-.-.-.-.-.-.-.-.-.-.-.-.-.-.-.-.-.-.=.-.v i =.-.-.-.-.-.-.-.-.-.=.=.-.=.G =.-.-.-.-.-.-.-.-.-.-.-.-.-.-.-.-.-.-.-.-.-.-.-.",
"-.-.-.-.-.-.-.-.-.-.-.-.-.-.-.-.-.-.-.-.-.-.-.&.&.-.=.-.-.-.-.-.-.-.-.-.-.-.-.-.-.-.-.-.-.-.-.-.-.-.-.-.-.-.-.-.-.-.-.-.-.-.-.-.",
"-.-.-.-.-.-.-.-.-.-.-.-.-.-.-.-.-.-.-.-.-.-.-.-.-.-.-.-.-.-.-.-.-.-.-.-.-.-.-.-.-.-.-.-.-.-.-.-.-.-.-.-.-.-.-.-.-.-.-.-.-.-.-.-.",
"-.-.-.-.-.-.-.-.-.-.-.-.-.-.-.-.-.-.-.-.-.-.-.-.-.-.-.-.-.-.-.-.-.-.-.-.-.-.-.-.-.-.-.-.-.-.-.-.-.-.-.-.-.-.-.-.-.-.-.-.-.-.-.-.",
"-.-.-.-.-.-.-.-.-.-.-.-.-.-.-.-.-.-.-.-.-.-.-.-.-.-.-.-.-.-.-.-.-.-.-.-.-.-.-.-.-.-.-.-.-.-.-.-.-.-.-.-.-.-.-.-.-.-.-.-.-.-.-.-.",
"-.-.-.-.-.-.-.-.-.-.-.-.-.-.-.-.-.-.-.-.-.-.-.-.-.-.-.-.-.-.-.-.-.-.-.-.-.-.-.-.-.-.-.-.-.-.-.-.-.-.-.-.-.-.-.-.-.-.-.-.-.-.-.-.",
"-.-.-.-.-.-.-.-.-.-.-.-.-.-.-.-.-.-.-.-.-.-.-.-.-.-.-.-.-.-.-.-.-.-.-.-.-.-.-.-.-.-.-.-.-.-.-.-.-.-.-.-.-.-.-.-.-.-.-.-.-.-.-.-."
};
