/* XPM */
static char *result[] = {
/* columns rows colors chars-per-pixel */
"64 64 170 2 ",
"   c #050505",
".  c #080707",
"X  c #0D0A05",
"o  c #060709",
"O  c #070809",
"+  c #0A0A0A",
"@  c #110F0D",
"#  c #130F07",
"$  c #13110C",
"%  c #1A160C",
"&  c #1D190E",
"*  c #171206",
"=  c #131313",
"-  c #1A1614",
";  c #1C1916",
":  c #1B1B1B",
">  c #250302",
",  c #2C0101",
"<  c #2A0D0C",
"1  c #270C0A",
"2  c #310303",
"3  c #221B0C",
"4  c #2C1413",
"5  c #271D19",
"6  c #321212",
"7  c #371918",
"8  c #3D1E1E",
"9  c #2D240D",
"0  c #31260D",
"q  c #35290E",
"w  c #2D2513",
"e  c #25211D",
"r  c #322711",
"t  c #362B13",
"y  c #3B2E11",
"u  c #3A251F",
"i  c #3D3012",
"p  c #232323",
"a  c #2A2421",
"s  c #2B2B2B",
"d  c #352927",
"f  c #3C322B",
"g  c #36302A",
"h  c gray20",
"j  c #3B3B3B",
"k  c #443513",
"l  c #4C3C14",
"z  c #433719",
"x  c #453D29",
"c  c #443C34",
"v  c #423A3A",
"b  c #623D3E",
"n  c #554216",
"m  c #5B4719",
"M  c #5F4A19",
"N  c #594617",
"B  c #634D19",
"V  c #6B541D",
"C  c #67511C",
"Z  c #735A1E",
"A  c #494439",
"S  c #55433A",
"D  c #6A5420",
"F  c #715920",
"G  c #795F20",
"H  c #7E6322",
"J  c #434343",
"K  c #4C4C4C",
"L  c #4C4944",
"P  c #554D48",
"I  c #5E5349",
"U  c #535353",
"Y  c #5F5851",
"T  c #5C5C5C",
"R  c #62574A",
"E  c #665A4E",
"W  c #685C4F",
"Q  c #675C56",
"!  c #6A6259",
"~  c #746356",
"^  c #7D6E5E",
"/  c #646464",
"(  c #6B6B6B",
")  c #696464",
"_  c #70706F",
"`  c #7E7164",
"'  c #747474",
"]  c #7C7B7B",
"[  c #876925",
"{  c #8B6D26",
"}  c #846723",
"|  c #8F712B",
" . c #937327",
".. c #977628",
"X. c #9C7A2A",
"o. c #A37F2B",
"O. c #895B5B",
"+. c #826F5F",
"@. c #926464",
"#. c #847565",
"$. c #8C7B6A",
"%. c #80766B",
"&. c #907F6D",
"*. c #897C79",
"=. c #987070",
"-. c #A97373",
";. c #B37C7D",
":. c #AB852E",
">. c #A98530",
",. c #B68F33",
"<. c #B89031",
"1. c #C79C36",
"2. c #CCA038",
"3. c #D5A63A",
"4. c #DDAE3C",
"5. c #E2B13D",
"6. c #93816F",
"7. c #8F8274",
"8. c #948371",
"9. c #9A8773",
"0. c #9C8976",
"q. c #9F8E7C",
"w. c #A08F7C",
"e. c #A6927D",
"r. c #A8947F",
"t. c #F0BB40",
"y. c #BC7F80",
"u. c #838282",
"i. c #8D8484",
"p. c #8D8D8C",
"a. c #938F8A",
"s. c #93908D",
"d. c #939393",
"f. c #989695",
"g. c #9D9C9C",
"h. c #AC9782",
"j. c #AE9A85",
"k. c #A59380",
"l. c #B39D87",
"z. c #B39F89",
"x. c #BBA58D",
"c. c #B5A08A",
"v. c #BFA890",
"b. c #A7A7A7",
"n. c #B3B3B3",
"m. c #B8B7B6",
"M. c #BABBBB",
"N. c #CC8B8B",
"B. c #C18484",
"V. c #DC9798",
"C. c #C3AC94",
"Z. c #CBB39A",
"A. c #C8B197",
"S. c #D5BCA1",
"D. c #D9BFA4",
"F. c #DFC5A9",
"G. c #E2C7AA",
"H. c #E5CAAE",
"J. c #EACFB1",
"K. c #EED2B4",
"L. c #F1D4B6",
"P. c #F4D7B8",
"I. c #F7DABB",
"U. c #FADCBD",
"Y. c #CBCCCC",
"T. c #CFD0D0",
"R. c gainsboro",
"E. c #FDDFC0",
"W. c #FBFBFB",
"Q. c None",
/* pixels */
"Q.Q.Q.Q.Q.Q.Q.Q.Q.Q.Q.Q.Q.Q.Q.Q.Q.Q.Q.Q.Q.Q.Q.Q.Q.Q.K J U Q.Q.Q.Q.Q.Q.Q.Q.Q.Q.Q.Q.T T Q.Q.Q.Q.Q.Q.Q.Q.Q.Q.Q.Q.Q.Q.Q.Q.Q.Q.Q./ ' ",
"Q.Q.Q.Q.Q.Q.Q.Q.Q.Q.Q.Q.Q.Q.Q.Q.Q.Q.Q.Q.Q.Q.Q.Q.Q./ p J s j Q.Q.Q.' j / Q.Q.J s p s J Q./ K Q.Q.Q./ Q.Q./ J Q.Q.Q.U Q.U ( Q.h K ",
"Q.Q.j p p s K Q.K j Q.Q.U Q.Q.T K Q.Q.Q.Q.Q.Q.Q.Q.T s Q.Q.s U Q.Q.h s s Q.Q.Q.T s ) Q.Q.j : / Q.h s Q.Q.h p J Q.Q.: T j j Q.J j ",
"Q.Q.Q.j s Q.Q.Q.U K Q.K : Q.Q.j p Q.Q.Q.Q.Q.Q.Q.Q.T s U h s Q.Q.U s ( h J Q.Q.Q.h Q.Q.Q.h p h J p p Q.U h ) s Q.T ; j / h Q.J h ",
"Q.Q.Q.j j Q.Q.Q.Q.Q.Q.J ; j / p p / Q.Q.Q.Q.Q.Q.Q.Q.: p p s / Q.h p s p p Q.Q.Q.s U Q.Q.s T j s T s ( j s T s K / p p K s Q.T J ",
"Q.Q.Q.J h Q.Q.Q.Q.Q.Q.h h h s J h K Q.Q.Q.Q.Q.Q.Q.Q.s / u.j h ] s T Q.U s U Q.Q.s K Q.Q.s Q.Q.Q.Q.s / h s h p h ) h T p : ( Q.Q.",
"Q.Q.Q.U h Q.Q.Q.Q.Q.Q.j J Q.Q.Q.K h Q.Q.Q.Q.Q.Q.Q.Q.s h j s K Q.J Q.Q.Q./ Q.Q.Q.J T Q.Q.K Q.Q.Q.Q.j U j T Q.) h ) j Q.K h Q.( T ",
"Q.Q.Q.Q.s Q.Q.Q.Q.Q.Q.j j Q.Q.Q.( s Q.Q.Q.Q.Q.Q.Q.Q.T j J Q.Q.Q.Q.Q.Q.Q.Q.Q.Q.Q.Q.Q.Q.Q.Q.Q.Q.Q.Q.Q.Q.Q.Q.Q.Q.' Q.Q.Q.Q.Q.Q.( T ",
"Q.Q.Q.T p h J ' Q.Q.Q.J K Q.Q.Q.Q.J ( Q.Q.Q.Q.Q.Q.Q.Q.Q.Q.Q.Q.Q.Q.Q.Q.Q.Q.Q.Q.Q.Q.Q.Q.Q.Q.Q.Q.Q.Q.Q.Q.Q.Q.Q.Q.Q.Q.Q.Q.Q.Q.Q.Q.Q.",
"Q.Q.Q.j j j K Q.Q.Q.Q.Q.Q.Q.Q.Q.Q.Q.Q.Q.Q.Q.Q.Q.Q.Q.Q.Q.Q.Q.Q.Q.Q.Q.Q.Q.Q.Q.Q.Q.Q.Q.Q.Q.Q.Q.Q.Q.Q.Q.Q.Q.Q.Q.Q.Q.Q.Q.Q.Q.Q.Q.Q.Q.",
"Q.Q.Q.Q.Q.Q.Q.Q.Q.Q.Q.Q.Q.Q.Q.Q.Q.Q.Q.Q.Q.Q.Q.Q.Q.Q.Q.Q.Q.Q.Q.Q.Q.Q.Q.Q.Q.Q.Q.Q.Q.Q.Q.Q.Q.Q.Q.Q.Q.Q.Q.Q.Q.Q.Q.Q.Q.Q.Q.Q.Q.Q.Q.Q.",
"Q.Q.Q.Q.Q.Q.Q.Q.Q.Q.Q.Q.Q.Q.Q.Q.Q.Q.Q.Q.Q.Q.Q.Q.Q.Q.Q.Q.Q.Q.Q.Q.Q.Q.Q.h K Q.Q.Q.Q.Q.Q.Q.Q.Q.Q.Q.Q.Q.Q.Q.Q.Q.Q.Q.Q.Q.Q.Q.Q.Q.Q.Q.",
"Q.Q.Q.Q.Q.Q.Q.Q.Q.Q.Q.Q.Q.Q.Q.Q.Q.Q.Q.K Q.Q.Q.Q.Q.Q.Q.Q.Q.Q.Q.Q.Q.Q.Q.= = J Q.Q.Q.Q.Q.Q.Q.Q.Q.Q.Q.Q.Q.Q.Q.Q.Q.Q.Q.Q.Q.Q.Q.Q.Q.Q.",
"Q.Q.Q.Q.Q.Q.Q.Q.Q.Q.Q.Q.Q.Q.Q.Q.Q.Q.J + s Q.Q.Q.Q.Q.Q.Q.Q.Q.Q.Q.Q.Q.Q.= . = J Q.Q.Q.Q.Q.Q.Q.Q.Q.Q.Q.Q.Q.Q.Q.Q.Q.Q.Q.Q.Q.Q.Q.Q.Q.",
"Q.Q.Q.Q.Q.Q.Q.Q.Q.Q.Q.Q.Q.Q.Q.Q.Q.Q.: O + j Q.Q.Q.Q.Q.Q.Q.Q.Q.Q.Q.Q.Q.+ O + = L Q.Q.Q.Q.Q.Q.Q.Q.Q.Q.Q.Q.Q.Q.Q.Q.Q.Q.Q.Q.Q.Q.Q.Q.",
"Q.Q.Q.Q.Q.Q.Q.Q.Q.Q.Q.Q.Q.Q.Q.Q.Q.L + + O + j Q.Q.Q.Q.Q.Q.Q.Q.Q.Q.Q.j + O O . = Q.Q.Q.Q.Q.Q.Q.Q.Q.Q.Q.Q.Q.Q.Q.Q.Q.Q.Q.Q.Q.Q.Q.Q.",
"Q.Q.Q.Q.Q.Q.Q.Q.Q.Q.Q.Q.Q.Q.Q.Q.Q.s O + + + $ j Q.Q.Q.Q.Q.Q.Q.Q.Q.Q.L + + + + . p Q.Q.Q.Q.Q.Q.Q.Q.Q.Q.Q.Q.Q.Q.Q.Q.Q.Q.Q.Q.Q.Q.Q.",
"Q.Q.Q.Q.Q.Q.Q.Q.Q.Q.Q.Q.Q.Q.Q.Q.Q.= O + + + O = J Q.Q.j p p p 5 p p p . + + + + O j Q.Q.Q.Q.Q.Q.Q.Q.Q.Q.Q.Q.Q.Q.Q.Q.Q.Q.Q.Q.Q.Q.",
"Q.Q.Q.Q.Q.Q.Q.Q.Q.Q.Q.Q.Q.Q.Q.Q.Q.+ + + + + O O @ : @ + O O O + O . . . . . O + O = Q.Q.Q.Q.Q.Q.Q.Q.Q.Q.Q.Q.Q.Q.Q.Q.Q.Q.Q.Q.Q.Q.",
"Q.Q.Q.Q.Q.Q.Q.Q.Q.Q.Q.Q.Q.Q.Q.Q.j O + + + + + + + + + + O + + + + + + + + . O + + O h Q.Q.Q.Q.Q.Q.Q.Q.Q.Q.Q.Q.Q.Q.Q.Q.Q.Q.Q.Q.Q.",
"Q.Q.Q.Q.Q.Q.Q.Q.Q.Q.Q.Q.Q.Q.Q.Q.s O + + + + + + + + + + + + + + + + + + + + + + + O = Q.Q.Q.Q.Q.Q.Q.Q.Q.Q.Q.Q.Q.Q.Q.Q.Q.Q.Q.Q.Q.",
"Q.Q.Q.Q.Q.Q.Q.Q.Q.Q.Q.Q.Q.Q.Q.Q.e O + + + + + + + + + + + + + + + + + + + + + + . . . j Q.Q.Q.Q.Q.Q.Q.Q.Q.Q.Q.Q.Q.Q.Q.Q.Q.Q.Q.Q.",
"Q.Q.Q.Q.Q.Q.Q.Q.Q.Q.Q.Q.Q.Q.Q.Q.; + + + + + + + + + + + + + + + + + + + . + . + s = . : Q.Q.Q.Q.Q.Q.Q.Q.Q.Q.Q.Q.Q.Q.Q.Q.Q.Q.Q.Q.",
"Q.Q.Q.Q.Q.Q.Q.Q.Q.Q.Q.Q.Q.Q.Q.Q.= O + + + + + . + + . . . . . . . + + +   O J g.Y.s . = Q.Q.Q.Q.Q.Q.Q.Q.Q.Q.Q.Q.Q.Q.Q.Q.Q.Q.Q.Q.",
"Q.Q.Q.Q.Q.Q.Q.Q.Q.Q.Q.Q.Q.Q.Q.Q.@ + + + + + + o @ ' b.f.p.p.u.= + + + + O @ / n.u.+ + + j Q.Q.Q.Q.Q.Q.Q.Q.Q.Q.Q.Q.Q.Q.Q.Q.Q.Q.Q.",
"Q.Q.Q.Q.Q.Q.Q.Q.Q.Q.Q.Q.Q.Q.Q.Q.+ + + + + + + + + s d.R.W.W.f.+ O O . + + O   + .   O   s Q.Q.Q.Q.Q.Q.Q.Q.Q.Q.Q.Q.Q.Q.Q.Q.Q.Q.Q.",
"Q.Q.Q.Q.Q.Q.Q.Q.Q.Q.Q.Q.Q.Q.Q.Q.+ + + + + + + + + o o : J K = . - a e @ + ; I $.#.~ R c s Q.Q.Q.Q.Q.Q.Q.Q.Q.Q.Q.Q.Q.Q.Q.Q.Q.Q.Q.",
"Q.Q.Q.Q.Q.Q.Q.Q.Q.Q.Q.Q.Q.Q.Q.Q.@ + + + + + + + + + + o + g ~ 9.$.#.6.6.6.A.U.K.G.U.I.F.Y Q.Q.Q.Q.Q.Q.Q.Q.Q.Q.Q.Q.Q.Q.Q.Q.Q.Q.Q.",
"Q.Q.Q.Q.Q.Q.Q.Q.Q.Q.Q.Q.Q.Q.Q.Q.@ + + + + + + + + o : W x.K.P.q.f.Y.m.a.7.j.c.` ! G.I.I.#.Q.Q.Q.Q.Q.Q.Q.Q.Q.Q.Q.Q.Q.Q.Q.Q.Q.Q.Q.",
"Q.Q.Q.Q.Q.Q.Q.Q.Q.Q.Q.Q.Q.Q.Q.Q.= + + + + + + + o f v.I.U.U.l.d g.n.g.u.U a ; v d l.U.U.h.Q.Q.Q.Q.Q.Q.h p : p Q.Q.Q.Q.Q.Q.Q.Q.Q.",
"Q.Q.Q.Q.Q.Q.Q.Q.Q.Q.Q.Q.Q.Q.Q.Q.: + + + + + + + o 8.E.I.I.K.S > > , > > , , , , > +.U.U.D.Y Q.Q.Q.s + . O   o h Q.Q.Q.Q.Q.Q.Q.Q.",
"Q.Q.Q.Q.Q.= + ; s j Q.Q.Q.Q.Q.Q.: + + + + + + + + e.U.I.U.A.4 , 2 2 2 2 2 2 2 2 > S P.I.P.` Q.J = O O . O     ; Q.Q.Q.Q.Q.Q.Q.Q.",
"Q.Q.Q.Q.j O .   . . p Q.Q.Q.Q.Q.s . + + + + + + + r.U.I.U.h., 2 2 2 2 2 2 2 2 2 , u G.I.U.e.p + + + + O       . h Q.Q.Q.Q.Q.Q.Q.",
"Q.Q.Q.Q.Q.=     + O + s Q.Q.Q.Q.j + + + + + + + . 0.E.I.E.9.> 2 2 2 2 2 , 2 2 2 2 4 A.U.U.C.% + + + + +       . j Q.Q.Q.Q.Q.Q.Q.",
"Q.Q.Q.Q.s +         . O = s Q.Q.Q.@ + + + + + +   #.U.I.U.0.> 2 , > , 7 7 6 > 2 2 < C.U.U.S.- O + + + +     . + Q.Q.Q.Q.Q.Q.Q.Q.",
"Q.Q.Q.Q.; O .     . + + . . @ p U p + + + + + + . W U.U.U.x.1 > d O.B.N.;.@.f 4 4 5 S.U.U.8.. + + + + + .     p Q.Q.Q.Q.Q.Q.Q.Q.",
"Q.Q.Q.Q.J O       + + + + + + + @ @ O O + + + + . A K.I.U.H.f b V.N.=.*.y.) ! ] _ I K.U.G.g O + + + + + + .   ; Q.Q.Q.Q.Q.Q.Q.Q.",
"Q.Q.Q.Q.J O .   O + + + + + + + + O   . . O + + . e S.I.P.U.6.-.k.i.T.M.' a.C.x.l.F.I.P.^ O + + + + + + O       J Q.Q.Q.Q.Q.Q.Q.",
"Q.Q.Q.Q.Q.;   O + + + + + + + + + + O O . . + + O O e.U.I.U.H.~ Q Y.s.7.F.U.U.E.U.U.U.j.= + + + + + + + .       : Q.Q.Q.Q.Q.Q.Q.",
"Q.Q.Q.Q.Q.p   . + + + + + + + + + + + + . . . O + . E I.U.P.U.H.a.=.v.I.I.I.I.I.I.U.c.e . + + + + + + O         O K Q.Q.Q.Q.Q.Q.",
"Q.Q.Q.Q.K O     O + + + + + + + + + + + + + O . . . e S.I.I.U.U.U.U.U.I.I.I.U.U.J.6.- . + + + + O O .           . s Q.Q.Q.Q.Q.Q.",
"Q.Q.Q.Q.p .       O + + + + + + + + + + + + + . .   . ^ U.U.U.U.U.U.U.U.U.L.S.6.c .   O + + + + + O               = Q.Q.Q.Q.Q.Q.",
"Q.Q.Q.Q.O .         + O + + + + + + + + + + + + + .   = W $.e.c.C.C.C.e.#.P 5 .   . . + + + + + + .           o   . J Q.Q.Q.Q.Q.",
"Q.Q.Q.s             . . + + + + + + + + + + + + + + . .     + @ @ @ @ X       . . + + + + + + + .         .         s Q.Q.Q.Q.Q.",
"Q.Q.Q.+               . + + + + + + + + + + + + + + + + O . . .     .     . O + . + + + + + O O                     5 Q.Q.Q.Q.Q.",
"Q.Q.h       .           + + + + + + + + + + + + + + + + + + O + . . O + + O O O O O + + + + .                       = Q.Q.Q.Q.Q.",
"Q.Q.@                   . + + + + + + + + + + + + + + + + + + @ O + + O + & w t r & + + + . o                       + Q.Q.Q.Q.Q.",
"Q.h     .                 . + + + + + + + + + + + + + + + + + + + + @ z [ :.,.:.5.V r % +                 o         O Q.Q.Q.Q.Q.",
"Q.;                           O + + + + + + + + + + + + + + + + . & C 1.5.n i k { 3 X 3 $ .           .     .       . j Q.Q.Q.Q.",
"K + .             .       .   O + + + + + + + + + + + + + + + + + V y 0 l X         * 3 3 .                         . s Q.Q.Q.Q.",
"h                               . O + O + + + + + + + + + + + + % [ X         X k M 1.F $ O                   .       p Q.Q.Q.Q.",
"s       . .   .                   . + O + + + + + + + + + + + + @ D B  .Z :.0 B 5.4.>.t O + .   o             .       = Q.Q.Q.Q.",
"h = p h K K j p +                   . . + + + + + + + + + + + + O & D ,.2.3.{ Z [ z $ O + + O         o       + p h s h Q.Q.Q.Q.",
"Q.Q.Q.Q.Q.Q.Q.Q.Q.:                     + + + + + + + + + + + + + + O @ ; 3 % @ . . + + + + + .           . p Q.Q.Q.Q.Q.Q.Q.Q.Q.",
"Q.Q.Q.Q.Q.Q.Q.Q.Q.Q.; o                 O + + + + + + + + + + + + + O + O + + + + + + + + + O .         . j Q.Q.Q.Q.Q.Q.Q.Q.Q.Q.",
"Q.Q.Q.Q.Q.Q.Q.Q.Q.Q.Q.+   .             . + + + + + + + + + + + + + + + + + + + + + + + + + O .         s Q.Q.Q.Q.Q.Q.Q.Q.Q.Q.Q.",
"Q.Q.Q.Q.Q.Q.Q.Q.Q.Q.Q.j .                 O + + + + + + + + + + + + + + + + + + + + + + + + + .   o   ; Q.Q.Q.Q.Q.Q.Q.Q.Q.Q.Q.Q.",
"Q.Q.Q.Q.Q.Q.Q.Q.Q.Q.Q.Q.p               . O + + + + + + + + + + + + + + + + + + + + + + + + + O   @ = J Q.Q.Q.Q.Q.Q.Q.Q.Q.Q.Q.Q.",
"Q.Q.Q.Q.Q.Q.Q.Q.Q.Q.Q.Q.Q.+               O O + + + + + + + + + + + + + + + + + + + + + + + + X = Q.Q.Q.Q.Q.Q.Q.Q.Q.Q.Q.Q.Q.Q.Q.",
"Q.Q.Q.Q.Q.Q.Q.Q.Q.Q.Q.Q.Q.h             . O + + + + + + + + + + + + + + + + + + + + + + + + + + p Q.Q.Q.Q.Q.Q.Q.Q.Q.Q.Q.Q.Q.Q.Q.",
"Q.Q.Q.Q.Q.Q.Q.Q.Q.Q.Q.Q.Q.Q.h s h s ; . . O + + + + + + O + + + + + O O + + + + + + + O O O + O = Q.Q.Q.Q.Q.Q.Q.Q.Q.Q.Q.Q.Q.Q.Q.",
"Q.Q.Q.Q.Q.Q.Q.Q.Q.Q.Q.Q.Q.Q.Q.Q.Q.Q.Q.p . o o . + + + + O . + + + O O . + O o + O O + $ & & $ X w A Q.Q.Q.Q.Q.Q.Q.Q.Q.Q.Q.Q.Q.Q.",
"Q.Q.Q.Q.Q.Q.Q.Q.Q.Q.Q.Q.Q.Q.Q.Q.Q.Q.Q.x l B m y & y y 9 0 # . . & 9 0 y y q y t X X 3 B B B n k H z Q.Q.Q.Q.Q.Q.Q.Q.Q.Q.Q.Q.Q.Q.",
"Q.Q.Q.Q.Q.Q.Q.Q.Q.Q.Q.Q.Q.Q.Q.Q.Q.Q.L m Z } <.o.n [ V .. .0 k y Z V C V V V C } C X.n Z 3.4.:.l X.| Q.Q.Q.Q.Q.Q.Q.Q.Q.Q.Q.Q.Q.Q."
};
