/* XPM */
static char *riddler2redact1641228730[] = {
/* columns rows colors chars-per-pixel */
"64 64 231 2 ",
"   c None",
".  c #070705",
"X  c #160302",
"o  c #003600",
"O  c #2A3D18",
"+  c #38192D",
"@  c #33052E",
"#  c #393727",
"$  c #332E29",
"%  c #420A36",
"&  c #452A35",
"*  c #4E343E",
"=  c #044301",
"-  c #174708",
";  c #015701",
":  c #185001",
">  c #2A5210",
",  c #026800",
"<  c #186A05",
"1  c #0B7800",
"2  c #147D01",
"3  c #246A06",
"4  c #277504",
"5  c #3A6319",
"6  c #377B15",
"7  c #306E10",
"8  c #3B5528",
"9  c #3B7525",
"0  c #407D1E",
"q  c #494638",
"w  c #4A5637",
"e  c #535A3D",
"r  c #484F2D",
"t  c #456729",
"y  c #48782A",
"u  c #536B3A",
"i  c #4B7433",
"p  c #557A35",
"a  c #4F6B33",
"s  c #6B6E3B",
"d  c #4C0644",
"f  c #541D48",
"g  c #5A1A55",
"h  c #4C1348",
"j  c #621C5D",
"k  c #771F5F",
"l  c #4D3642",
"z  c #593949",
"x  c #5D3252",
"c  c #5D3951",
"v  c #582D4E",
"b  c #62215B",
"n  c #652B5D",
"m  c #7C285E",
"M  c #653858",
"N  c #650166",
"B  c #670069",
"V  c #7B076D",
"C  c #691764",
"Z  c #751B63",
"A  c #751769",
"S  c #7B0778",
"D  c #7C1579",
"F  c #692462",
"G  c #762867",
"H  c #76346B",
"J  c #7F2278",
"K  c #6C3362",
"L  c #594847",
"P  c #5B5748",
"I  c #5E4050",
"U  c #4E4540",
"Y  c #664656",
"T  c #6A5656",
"R  c #634B4B",
"E  c #5A6745",
"W  c #5D7447",
"Q  c #626B4A",
"!  c #767558",
"~  c #6E7356",
"^  c #7A5769",
"/  c #7B4D67",
"(  c #7A6665",
")  c #7B7865",
"_  c #FF3301",
"`  c #FF3D00",
"'  c #FF3808",
"]  c #FF4500",
"[  c #FF4D00",
"{  c #FF5800",
"}  c #FC4B19",
"|  c #FF6302",
" . c #FF6219",
".. c #F05930",
"X. c #FF653C",
"o. c #CB7D2E",
"O. c #812E5E",
"+. c #88375C",
"@. c #B8325C",
"#. c #81077B",
"$. c #841D79",
"%. c #8F126F",
"&. c #872C65",
"*. c #8A3561",
"=. c #943A64",
"-. c #842777",
";. c #86377A",
":. c #933477",
">. c #AF286E",
",. c #AA1959",
"<. c #C02346",
"1. c #CF3369",
"2. c #97465C",
"3. c #94584C",
"4. c #A35658",
"5. c #AF6D55",
"6. c #854278",
"7. c #8C567B",
"8. c #984372",
"9. c #AA5372",
"0. c #89786A",
"q. c #896275",
"w. c #8B7275",
"e. c #B27C7A",
"r. c #D94259",
"t. c #D74944",
"y. c #EE574E",
"u. c #C3705F",
"i. c #FE7547",
"p. c #CB5176",
"a. c #C46C67",
"s. c #E24371",
"d. c #188A01",
"f. c #1E9B01",
"g. c #2D8400",
"h. c #278701",
"j. c #348907",
"k. c #2C9201",
"l. c #2C9B02",
"z. c #289805",
"x. c #349503",
"c. c #329A01",
"v. c #39970B",
"b. c #398717",
"n. c #3C9516",
"m. c #1CA300",
"M. c #2CAD01",
"N. c #24A500",
"B. c #32A900",
"V. c #2DBE00",
"C. c #2CB600",
"Z. c #31BB00",
"A. c #35B609",
"S. c #35A715",
"D. c #3BB717",
"F. c #4B9018",
"G. c #6D9318",
"H. c #42BA1D",
"J. c #5DBA10",
"K. c #468425",
"L. c #469728",
"P. c #498A31",
"I. c #598B39",
"U. c #579637",
"Y. c #728D35",
"T. c #47A627",
"R. c #51A82E",
"E. c #47B424",
"W. c #55B932",
"Q. c #58AE37",
"!. c #6AAD31",
"~. c #6EA217",
"^. c #2CC500",
"/. c #2DCC00",
"(. c #32C400",
"). c #32CD00",
"_. c #3BCA0A",
"`. c #35CE07",
"'. c #4EC422",
"]. c #59CC27",
"[. c #5A8442",
"{. c #78995A",
"}. c #6F8B52",
"|. c #74A454",
" X c #6DA848",
".X c #7E8564",
"XX c #81863D",
"oX c #809944",
"OX c #A29E54",
"+X c #90B94C",
"@X c #8B8A6C",
"#X c #B1AA66",
"$X c #A7A65E",
"%X c #F58D5B",
"&X c #FF996B",
"*X c #FF8664",
"=X c #C3A664",
"-X c #FFA97A",
";X c #D58D72",
":X c #81CF43",
">X c #A0C258",
",X c #D9C07F",
"<X c #8D018D",
"1X c #950195",
"2X c #9C019C",
"3X c #892880",
"4X c #972C81",
"5X c #923383",
"6X c #AA3784",
"7X c #BD3C93",
"8X c #B21DAD",
"9X c #AA498B",
"0X c #A76886",
"qX c #C1748D",
"wX c #D36B9A",
"eX c #D48991",
"rX c #E69B89",
"tX c #EE9491",
"yX c #DAB387",
"uX c #E6A98B",
"iX c #F8B98D",
"pX c #ECAE92",
"aX c #FBAD97",
"sX c #F6BB92",
"dX c #F9BA95",
"fX c #EDB291",
"gX c #E489A0",
"hX c #FCC396",
"jX c #FFCA9A",
"kX c #FCC798",
"lX c #ECC68B",
/* pixels */
"                                                                                                                                ",
"    n E [.[.W Y G                                             #.                                                                ",
"  x T.).^.^.^.(.Q.~ H                                       #.<.r.t.@.%.                                                        ",
"  E ).).f.1 1 2 m.^.W.(                                     >.} [ { | ..t.>.V                                                   ",
"  P ^.).d.= = ; , 1 M._.)                                   ,._ _ _ ` ] {  ...@.%.                                              ",
"  x S./.V.< o o = , , m._.)                                 ,.' _ ' ' _ _ ] { | 1.                                              ",
"  E z.N.^.^.f.; o o ; d.`.'.5X                                y.%X&X-X&X} _ ]  .s.#.                                            ",
"C T.M.c.z.^.).C.d.< d.C.`.].eX5X                            9.dXdXkXdXi.' ] { ..4X                                              ",
"  U.).A.c.S.T._.`./.^././.|.qXgX#.                        :.uXiXpXiXi._ ] { | y.                                                ",
"  M H.A.v.L.W w.0X.XP.R.!.I.I.Y.T                         ! >X+X,XiXX._ ` ] { s.                                                ",
"    M p U.}.q.8X8X#.A 0X! P P I 5 T                       R Y.s  X-Xi._ ' ]  .>.                                                ",
"        K G $.S     3XD         M y ;.                  A e.OX5.;X#Xo.%XX.{ s.                                                  ",
"                                  L Q A               qXfXlXaXaXsXiX-XdXX.r.D                                                   ",
"                                    t 6.              &.eXfXdXkXdXkXjX*X1.                                                      ",
"                                    l p ;.            8.rXkXfXtXeXjX-X1.                                                        ",
"                                    j b.~             qXrXqX9XwXrXjXhX7X                                                        ",
"                                      y n.6.          A     8.rXfXjXjXwX                                                        ",
"                                      * 3 I.-.              eXkXdXkXdXaX9X                                                      ",
"                                      b 5 4 u H             8.hXjXdXpXdXhXgX4X                                                  ",
"                                        + : < v.w U Y F     A pXkXgXpXdXjXjXaX@XH                                               ",
"                                          & e a y b.F.K.O r $ #X#X0.iXkXlX$XW._.W.(                                             ",
"                                                  n x x % q $ a t }.$X+X].z.Z.Z._.D.(                                           ",
"                                                                c b.g.l._.).Z.N.h.< O F                                         ",
"                                                                I c.g.: < B.(.^.n.b.= y 5X                                      ",
"                                                                z c.j.4 - 3 (.l.{.K 9 /.{.D                                     ",
"                                                                M x.x.< < M.M.Q D N Y E.A./                       Z G O.+.=.-.  ",
"                                                                j b.3 c.).).I.D N N N Y S.P.-.  G O.m O.+.+.2.=.*.*.G Z         ",
"                                            G 4.$.                i g.B.(.(.@XJ C m m +.}._.!.=.O.&.m Z Z A                     ",
"                                          Z 9.4.a.#.        A A Z s F.~.G.G.=X#X!.5.;.*.G [._.7.                                ",
"                                          4.6XN 2.9.$.+.9.5.u.5.4.3.G.~.J.!.uXlX:XR.~ B B F L. X$.                              ",
"                                          4.6XN B =.2.2.=.&.:.A   j 3 k./.|.9XrXyX( L.P.) K Y E.0.                              ",
"                                          +.p.S O.-.              j y k.^.0.  ;.3X  j E E.E.~ Q.].;.                            ",
"                                            u.4X4.p.                e h.M.w.            K q > A.^.}.D                           ",
"                                            4.u.9.6X                x k.^.@X                  l 9 b.0X                          ",
"                                              +.=.                  g b.).|.D                   C Y C                           ",
"                                                                    q 4 l.D.q.                                                  ",
"                                                                    K.l.z.C.T.6.                                                ",
"                                                                g L b.k.(._./.!                                                 ",
"                                                      j M R r # 7 g.z.k.M.)./..X                                                ",
"                                              j M * # 0 x.j.4 j.K.p P q y E.V. X3X                                              ",
"% R S                                   b % & y x.k.4 v.K.w z Y b         b 9 D.7.                                              ",
"d r ;.                          j c e y 6 - > > K.W z n b                   l d.{.S                                             ",
"  + Y V                   g * & 6 x.c.F.y * v b                             j T.n.J                                             ",
"    + e H         j I u 5 j.4 5 p u Y n Z                                     W ^.@X                                            ",
"      % r f % R y b.v.F.p Q Y F                                               M S.W.3X                                          ",
"        @ X X 5 w z M F                                                         r N.^                                           ",
"        d X X %                                                                 I ^. X3X                                        ",
"          @ d                                                                   C U.A./                                         ",
"                                                                                  c - E #.                                      ",
"                                                                                    $ 9 J                                       ",
"                                                                                    I C..X                                      ",
"                                                                                    C R.].5X                                    ",
"                                                                                      T /.)                                     ",
"                                                                                      F L. X3X                                  ",
"                                                                                        U 4 w.                                  ",
"                                                                                        g b.|.J                                 ",
"                                                                                          P D.5X                                ",
"                                                                                          n D.{.                                ",
"                                                                                            W W.5X                              ",
"                                                                                            F E.(                               ",
"                                                                                              8 i C                             ",
"                                                                                              + . .                             ",
"                                                                                    l Y H c W < . . %                           ",
"                                <X<X1X1X1X1X2X2X2X2X2X2X2X2X2X2X2X2X2X2X1X1X1X1X<X<Xj U 8 > $ h N @ @ 1X#.#.                    "
};
