/* XPM */
static char *_b062c47290f4268eaa71ca8f16b08aeuln6uQHhROAjgDeL[] = {
/* columns rows colors chars-per-pixel */
"64 64 238 2 ",
"   c None",
".  c #060805",
"X  c #110211",
"o  c #191002",
"O  c #2A0518",
"+  c #003500",
"@  c #172605",
"#  c #2A3319",
"$  c #3B182F",
"%  c #2D3222",
"&  c #3B262C",
"*  c #401A39",
"=  c #440338",
"-  c #493738",
";  c #412237",
":  c #014A00",
">  c #184A07",
",  c #035700",
"<  c #195705",
"1  c #30541B",
"2  c #066700",
"3  c #176505",
"4  c #0A7700",
"5  c #177B01",
"6  c #276B01",
"7  c #2A7E02",
"8  c #277404",
"9  c #316916",
"0  c #354A22",
"q  c #3B5925",
"w  c #3A7221",
"e  c #4C4538",
"r  c #52493E",
"t  c #4C5837",
"y  c #535C3A",
"u  c #45442F",
"i  c #49772B",
"p  c #4D6635",
"a  c #536639",
"s  c #547A37",
"d  c #506F2C",
"f  c #6F7B3D",
"g  c #470744",
"h  c #541150",
"j  c #621F5B",
"k  c #53284A",
"l  c #4E3541",
"z  c #533E43",
"x  c #5C2654",
"c  c #5D3552",
"v  c #4F2545",
"b  c #64245D",
"n  c #632B5A",
"m  c #682C5D",
"M  c #7D285E",
"N  c #65355A",
"B  c #680168",
"V  c #691864",
"C  c #751866",
"Z  c #7B027A",
"A  c #7B0C77",
"S  c #7B1475",
"D  c #7D157A",
"F  c #7B056A",
"G  c #6A2363",
"H  c #7B256B",
"J  c #6E3B63",
"K  c #7B2475",
"L  c #78366D",
"P  c #594A48",
"I  c #5A5945",
"U  c #574A49",
"Y  c #674658",
"T  c #665A52",
"R  c #615C4F",
"E  c #5C6748",
"W  c #5B7944",
"Q  c #657A4B",
"!  c #74695A",
"~  c #727854",
"^  c #686D4F",
"/  c #7B456B",
"(  c #7B5769",
")  c #6F4060",
"_  c #7C6E67",
"`  c #FF3401",
"'  c #FE3D00",
"]  c #FF3A0C",
"[  c #F73613",
"{  c #F23829",
"}  c #FF4A00",
"|  c #FF5400",
" . c #FF5D02",
".. c #FF6403",
"X. c #FD6015",
"o. c #F15731",
"O. c #FE602F",
"+. c #822E5E",
"@. c #8A395C",
"#. c #BD2D5B",
"$. c #85077B",
"%. c #841B79",
"&. c #8E1270",
"*. c #862966",
"=. c #8E3962",
"-. c #923867",
";. c #84297B",
":. c #8A377B",
">. c #982E71",
",. c #A62B7B",
"<. c #9B145C",
"1. c #CF386C",
"2. c #CC3F50",
"3. c #955454",
"4. c #AA5D5A",
"5. c #B56A58",
"6. c #AD6554",
"7. c #994566",
"8. c #824375",
"9. c #894A7A",
"0. c #97547A",
"q. c #AE5370",
"w. c #8D6A73",
"e. c #B66B70",
"r. c #857856",
"t. c #D74B53",
"y. c #F25056",
"u. c #EA4E4E",
"i. c #C2745C",
"p. c #FF7D52",
"a. c #EA4A69",
"s. c #C26471",
"d. c #1A9B01",
"f. c #138801",
"g. c #2A8C01",
"h. c #358707",
"j. c #2C9401",
"k. c #259D00",
"l. c #2C9C01",
"z. c #2A940C",
"x. c #329601",
"c. c #379509",
"v. c #3A8913",
"b. c #3D9214",
"n. c #2AA802",
"m. c #32A305",
"M. c #2CB500",
"N. c #28B800",
"B. c #33B707",
"V. c #3BA519",
"C. c #37B211",
"Z. c #3F8B22",
"A. c #3CAA21",
"S. c #4D8F1A",
"D. c #43B81E",
"F. c #4CAB0D",
"G. c #488528",
"H. c #4C982B",
"J. c #59863A",
"K. c #579938",
"L. c #4A9034",
"P. c #668E35",
"I. c #47A929",
"U. c #47B326",
"Y. c #5BB738",
"T. c #54AD2E",
"R. c #6BB33C",
"E. c #7A8E1F",
"W. c #2CC300",
"Q. c #2CCC00",
"!. c #32C300",
"~. c #32CC00",
"^. c #39CB07",
"/. c #2FD000",
"(. c #39CD0C",
"). c #46C61B",
"_. c #54C12E",
"`. c #4CC323",
"'. c #5C8A41",
"]. c #6E8D54",
"[. c #778D5B",
"{. c #6D9350",
"}. c #65A946",
"|. c #6DAD47",
" X c #7D8762",
".X c #7D9361",
"XX c #83AF1E",
"oX c #83A22A",
"OX c #CD8536",
"+X c #858D50",
"@X c #8E994D",
"#X c #91AF53",
"$X c #828668",
"%X c #8E996B",
"&X c #AF966D",
"*X c #BEB16B",
"=X c #B48152",
"-X c #F58955",
";X c #F58D6B",
":X c #C6AE71",
">X c #FFA979",
",X c #80CA46",
"<X c #CDCC75",
"1X c #850185",
"2X c #860885",
"3X c #8B1482",
"4X c #882882",
"5X c #8A3182",
"6X c #9B3785",
"7X c #AE3599",
"8X c #C10CBE",
"9X c #8E4980",
"0X c #AE4F8C",
"qX c #B96B81",
"wX c #B9698D",
"eX c #CE5C93",
"rX c #D57097",
"tX c #D86FA4",
"yX c #D9998B",
"uX c #D58C91",
"iX c #E7958D",
"pX c #EFAC8A",
"aX c #F9AE87",
"sX c #FAB587",
"dX c #E8A895",
"fX c #FEAB95",
"gX c #EEB993",
"hX c #F4B594",
"jX c #F9BD94",
"kX c #F6BB92",
"lX c #E8B384",
"zX c #F098A5",
"xX c #DCCA82",
"cX c #FDC295",
"vX c #FECA96",
"bX c #FFCC9A",
"nX c #FEC59A",
"mX c #E9C48D",
/* pixels */
"                                                                                                                                ",
"    x Y R R Y V                                               $.                                                                ",
"  N I.~.Q.~.(.T.]./                                         &.#.t.o.2.<.                                                        ",
"  L.Q.~.d.f.f.d.N.).].L                                     <.{ } | | X.o.#.&.                                                  ",
"  L.~.!.2 : , , 4 f.W.}.8.                                  <.' ` ` ] } | | o.t.&.                                              ",
"  U N.~.k.: + + , 2 f.W.Y./                                 F [ ` ] [ } ] } | ..y.2X                                            ",
"  s k.N.~.n.2 + + : 2 d.Q.}.4X                                t.;X>X>X>XO.` '  .a.&.                                            ",
"m V.l.k.N.!.~.n.2 , 5 M.~.,XwXA                             0.hXkXcXjXp.] ' | O.,.                                              ",
"n U.B.m.k.C.(./.~.Q.!.~.Q.#XuXtX                          H lX>XpXkX-X` ' | ..u.&.                                              ",
"  W ~.B.z.L.Q w.$X{.F.U.T.'.Q +XN                         ! |.#X*XcXp.` ` } | y.$.                                              ",
"  V E H.K.].0.7X8XA G w.~ a I I i /                       Y J.f P.*X-X' ] ] ..1.                                                ",
"      m Y 8.5X2X    6X;.        z i ;.                  H qX*X5.;X*XOX-Xp.| u.$.                                                ",
"                                  t ! A               0.gXjXfXfXfXjXaXcX-Xu.&.                                                  ",
"                                  j i L               S qXhXjXnXjXjXnX;X1.F                                                     ",
"                                    z J.;.            :.yXcXhXiXrXnXkXa.                                                        ",
"                                    j b.!             q.uXwX0XeXiXnXvXeX                                                        ",
"                                      i S.9.                :.pXpXnXcXzX3X                                                      ",
"                                      - 3 J.;.              e.vXjXnXjXjXtXS                                                     ",
"                                      b 1 7 a J             H dXbXjXpXpXnXdX0X%.                                                ",
"                                        $ < 3 b.p r Y G       uXbXuXdXjXbXnXmX&X(                                               ",
"                                          ; y p i v.v.G.0 q % +X:Xr.gXvXxX#XT.^.).].K                                           ",
"                                                  b n c * r & t p s @XR.).n.B.M.W.M.Q D                                         ",
"                                                                x S.g.x.M.^.!.n.z.3 > k S                                 C &.  ",
"                                                                n c.g.> 3 g.!.N.C.G.< 9 w.                          C +.=.-.%.  ",
"                                                                x v.j.g.> > ~.l.[.H t W._.9.              C H *.=.-.*.C         ",
"                                                                j v.x.8 8 M.M.E %.B V J.W.s %.  C +.@.=.@.=.@.*.                ",
"                                                                  i 6 j.~./.K.S B B B V J.B.].7.-.*.C                           ",
"                                                                  y g.m.N.N.%X5Xj M J 3.3.K.^.w.                                ",
"                                                                  P x.c.F.S.&X:X|.@X7.S B G A.}.;.                              ",
"                                            C 6.5.%.          *.+.3.E.oXXXoXuXjX<X`.K.R V B Y V.[.                              ",
"                                            7.,.@.s.*.  =.q.5.i.4.3.d h.N.|.6XqXhXqX^ Z.K.].J R `.0.                            ",
"                                            s.%.  *.q.7.4.>.-.%.    a j.N..XZ   6X    b W A.V.}.(.Y.:.                          ",
"                                            4.6X                    P 7 n..XZ             G * 0 V.n.Q D                         ",
"                                            +.s.A 4.0X              x v.W..XZ                   k t W ;.                        ",
"                                              6.q.7.q.                9 ~.Y.5X                                                  ",
"                                              +.6.q.,.              P 8 z.n..X                                                  ",
"                                                                    i l.l.M.C._                                                 ",
"                                                                v p c.j.B./.Q.{.D                                               ",
"                                                          c a 0 6 h.j.g.k.Q./.$X                                                ",
"                                                    N - 0 c.x.8 h.G.s U y I.W. X                                                ",
"                                                g u S.x.7 S.s P m V       c z.|.4X                                              ",
"                                                $ @ 6 i y b C               1 C.9X                                              ",
"                                                t 6 e S                     J.N.(                                               ",
"                                                y l.E Z                     R N.].D                                             ",
"                                                y n.~ Z                     n V.Y.5X                                            ",
"                                                u 6 !                         p m./                                             ",
"                                                - 6 !                         E Q.$X                                            ",
"                                                e j.w.                        N C.'.4X                                          ",
"                                                I l.w.                          % 9 5X                                          ",
"                                                P g.Y                           l 5 J                                           ",
"                                                * o O                           N B.[.D                                         ",
"                                                v o o O                           H._.5X                                        ",
"                                              b w # = O                           E (.w.                                        ",
"                                        h r r 0 $                                 N z. X                                        ",
"                                        h * & g                                     0 '.4X                                      ",
"                                                                                    U D.9X                                      ",
"                                                                                    x C.$X                                      ",
"                                                                                      K..XD                                     ",
"                                                                                      E _.5X                                    ",
"                                                                                      J A./                                     ",
"                                                                                        w E                                     ",
"                                                                                      h . . g Z                                 ",
"                                                                            k I J n I w @ . X                                   ",
"                                  Z 1X1X1X1X1X1X1X1X1X1X1X1X1X1X1X1X1X1X1X1XB l q 1 % * h g X   1X                              "
};
